%TF.GenerationSoftware,KiCad,Pcbnew,8.0.3*%
%TF.CreationDate,2024-11-24T17:28:37-05:00*%
%TF.ProjectId,MH24BN0001_hw,4d483234-424e-4303-9030-315f68772e6b,rev?*%
%TF.SameCoordinates,Original*%
%TF.FileFunction,Drillmap*%
%TF.FilePolarity,Positive*%
%FSLAX45Y45*%
G04 Gerber Fmt 4.5, Leading zero omitted, Abs format (unit mm)*
G04 Created by KiCad (PCBNEW 8.0.3) date 2024-11-24 17:28:37*
%MOMM*%
%LPD*%
G01*
G04 APERTURE LIST*
%ADD10C,0.050000*%
%ADD11C,0.200000*%
G04 APERTURE END LIST*
D10*
X2550000Y-2550000D02*
X7250000Y-2550000D01*
X7250000Y-6000000D01*
X2550000Y-6000000D01*
X2550000Y-2550000D01*
D11*
X2808277Y-6313984D02*
X2808277Y-6113984D01*
X2808277Y-6113984D02*
X2855896Y-6113984D01*
X2855896Y-6113984D02*
X2884467Y-6123508D01*
X2884467Y-6123508D02*
X2903515Y-6142555D01*
X2903515Y-6142555D02*
X2913039Y-6161603D01*
X2913039Y-6161603D02*
X2922562Y-6199698D01*
X2922562Y-6199698D02*
X2922562Y-6228269D01*
X2922562Y-6228269D02*
X2913039Y-6266365D01*
X2913039Y-6266365D02*
X2903515Y-6285412D01*
X2903515Y-6285412D02*
X2884467Y-6304460D01*
X2884467Y-6304460D02*
X2855896Y-6313984D01*
X2855896Y-6313984D02*
X2808277Y-6313984D01*
X3008277Y-6313984D02*
X3008277Y-6180650D01*
X3008277Y-6218746D02*
X3017801Y-6199698D01*
X3017801Y-6199698D02*
X3027324Y-6190174D01*
X3027324Y-6190174D02*
X3046372Y-6180650D01*
X3046372Y-6180650D02*
X3065420Y-6180650D01*
X3132086Y-6313984D02*
X3132086Y-6180650D01*
X3132086Y-6113984D02*
X3122562Y-6123508D01*
X3122562Y-6123508D02*
X3132086Y-6133031D01*
X3132086Y-6133031D02*
X3141610Y-6123508D01*
X3141610Y-6123508D02*
X3132086Y-6113984D01*
X3132086Y-6113984D02*
X3132086Y-6133031D01*
X3255896Y-6313984D02*
X3236848Y-6304460D01*
X3236848Y-6304460D02*
X3227324Y-6285412D01*
X3227324Y-6285412D02*
X3227324Y-6113984D01*
X3360658Y-6313984D02*
X3341610Y-6304460D01*
X3341610Y-6304460D02*
X3332086Y-6285412D01*
X3332086Y-6285412D02*
X3332086Y-6113984D01*
X3589229Y-6313984D02*
X3589229Y-6113984D01*
X3589229Y-6113984D02*
X3655896Y-6256841D01*
X3655896Y-6256841D02*
X3722562Y-6113984D01*
X3722562Y-6113984D02*
X3722562Y-6313984D01*
X3903515Y-6313984D02*
X3903515Y-6209222D01*
X3903515Y-6209222D02*
X3893991Y-6190174D01*
X3893991Y-6190174D02*
X3874943Y-6180650D01*
X3874943Y-6180650D02*
X3836848Y-6180650D01*
X3836848Y-6180650D02*
X3817801Y-6190174D01*
X3903515Y-6304460D02*
X3884467Y-6313984D01*
X3884467Y-6313984D02*
X3836848Y-6313984D01*
X3836848Y-6313984D02*
X3817801Y-6304460D01*
X3817801Y-6304460D02*
X3808277Y-6285412D01*
X3808277Y-6285412D02*
X3808277Y-6266365D01*
X3808277Y-6266365D02*
X3817801Y-6247317D01*
X3817801Y-6247317D02*
X3836848Y-6237793D01*
X3836848Y-6237793D02*
X3884467Y-6237793D01*
X3884467Y-6237793D02*
X3903515Y-6228269D01*
X3998753Y-6180650D02*
X3998753Y-6380650D01*
X3998753Y-6190174D02*
X4017801Y-6180650D01*
X4017801Y-6180650D02*
X4055896Y-6180650D01*
X4055896Y-6180650D02*
X4074943Y-6190174D01*
X4074943Y-6190174D02*
X4084467Y-6199698D01*
X4084467Y-6199698D02*
X4093991Y-6218746D01*
X4093991Y-6218746D02*
X4093991Y-6275888D01*
X4093991Y-6275888D02*
X4084467Y-6294936D01*
X4084467Y-6294936D02*
X4074943Y-6304460D01*
X4074943Y-6304460D02*
X4055896Y-6313984D01*
X4055896Y-6313984D02*
X4017801Y-6313984D01*
X4017801Y-6313984D02*
X3998753Y-6304460D01*
X4179705Y-6294936D02*
X4189229Y-6304460D01*
X4189229Y-6304460D02*
X4179705Y-6313984D01*
X4179705Y-6313984D02*
X4170182Y-6304460D01*
X4170182Y-6304460D02*
X4179705Y-6294936D01*
X4179705Y-6294936D02*
X4179705Y-6313984D01*
X4179705Y-6190174D02*
X4189229Y-6199698D01*
X4189229Y-6199698D02*
X4179705Y-6209222D01*
X4179705Y-6209222D02*
X4170182Y-6199698D01*
X4170182Y-6199698D02*
X4179705Y-6190174D01*
X4179705Y-6190174D02*
X4179705Y-6209222D01*
M02*
