%TF.GenerationSoftware,KiCad,Pcbnew,8.0.3*%
%TF.CreationDate,2024-11-24T17:28:35-05:00*%
%TF.ProjectId,MH24BN0001_hw,4d483234-424e-4303-9030-315f68772e6b,rev?*%
%TF.SameCoordinates,Original*%
%TF.FileFunction,Copper,L2,Bot*%
%TF.FilePolarity,Positive*%
%FSLAX46Y46*%
G04 Gerber Fmt 4.6, Leading zero omitted, Abs format (unit mm)*
G04 Created by KiCad (PCBNEW 8.0.3) date 2024-11-24 17:28:35*
%MOMM*%
%LPD*%
G01*
G04 APERTURE LIST*
%TA.AperFunction,ComponentPad*%
%ADD10C,1.530000*%
%TD*%
%TA.AperFunction,ComponentPad*%
%ADD11R,1.397000X1.397000*%
%TD*%
%TA.AperFunction,ComponentPad*%
%ADD12C,1.397000*%
%TD*%
%TA.AperFunction,ComponentPad*%
%ADD13C,1.524000*%
%TD*%
%TA.AperFunction,ViaPad*%
%ADD14C,0.600000*%
%TD*%
%TA.AperFunction,Conductor*%
%ADD15C,0.200000*%
%TD*%
G04 APERTURE END LIST*
D10*
%TO.P,J1,1*%
%TO.N,+3.3V*%
X34500000Y-54620000D03*
%TO.P,J1,2*%
X31960000Y-54620000D03*
%TO.P,J1,3*%
%TO.N,GND*%
X34500000Y-52080000D03*
%TO.P,J1,4*%
X31960000Y-52080000D03*
%TO.P,J1,5*%
X34500000Y-49540000D03*
%TO.P,J1,6*%
X31960000Y-49540000D03*
%TO.P,J1,7*%
%TO.N,/SWDIO*%
X34500000Y-47000000D03*
%TO.P,J1,8*%
%TO.N,GND*%
X31960000Y-47000000D03*
%TO.P,J1,9*%
%TO.N,/SWCLK*%
X34500000Y-44460000D03*
%TO.P,J1,10*%
%TO.N,GND*%
X31960000Y-44460000D03*
%TO.P,J1,11*%
%TO.N,unconnected-(J1-Pad11)*%
X34500000Y-41920000D03*
%TO.P,J1,12*%
%TO.N,GND*%
X31960000Y-41920000D03*
%TO.P,J1,13*%
%TO.N,unconnected-(J1-Pad13)*%
X34500000Y-39380000D03*
%TO.P,J1,14*%
%TO.N,GND*%
X31960000Y-39380000D03*
%TO.P,J1,15*%
%TO.N,/NRST*%
X34500000Y-36840000D03*
%TO.P,J1,16*%
%TO.N,GND*%
X31960000Y-36840000D03*
%TO.P,J1,17*%
%TO.N,unconnected-(J1-Pad17)*%
X34500000Y-34300000D03*
%TO.P,J1,18*%
%TO.N,GND*%
X31960000Y-34300000D03*
%TO.P,J1,19*%
%TO.N,unconnected-(J1-Pad19)*%
X34500000Y-31760000D03*
%TO.P,J1,20*%
%TO.N,GND*%
X31960000Y-31760000D03*
%TD*%
D11*
%TO.P,R1,1*%
%TO.N,GND*%
X41785000Y-29500000D03*
D12*
%TO.P,R1,2*%
%TO.N,Net-(U1-BOOT0)*%
X53215000Y-29500000D03*
%TD*%
D13*
%TO.P,SI1,1,VCC*%
%TO.N,+3.3V*%
X69000000Y-45000000D03*
%TO.P,SI1,2,TX*%
%TO.N,/MCU_RX*%
X69000000Y-47000000D03*
%TO.P,SI1,3,RX*%
%TO.N,/MCU_TX*%
X69000000Y-49000000D03*
%TO.P,SI1,4,GND*%
%TO.N,GND*%
X69000000Y-51000000D03*
%TD*%
D14*
%TO.N,+3.3V*%
X44000000Y-34500000D03*
X39000000Y-54000000D03*
X61500000Y-36000000D03*
%TO.N,GND*%
X49000000Y-33000000D03*
X39500000Y-33000000D03*
X51500000Y-34000000D03*
%TO.N,/SWDIO*%
X38500000Y-45000000D03*
X61000000Y-41500000D03*
%TO.N,/SWCLK*%
X58000000Y-34000000D03*
X38500000Y-43500000D03*
%TD*%
D15*
%TO.N,+3.3V*%
X39000000Y-54000000D02*
X37900000Y-52900000D01*
X39000000Y-54000000D02*
X58674265Y-54000000D01*
X69000000Y-45000000D02*
X67674265Y-45000000D01*
X37900000Y-40600000D02*
X44000000Y-34500000D01*
X37900000Y-52900000D02*
X37900000Y-40600000D01*
X61600000Y-51074265D02*
X61600000Y-36100000D01*
X58674265Y-54000000D02*
X61600000Y-51074265D01*
X67674265Y-45000000D02*
X61600000Y-51074265D01*
X61600000Y-36100000D02*
X61500000Y-36000000D01*
%TO.N,GND*%
X49000000Y-33000000D02*
X39500000Y-33000000D01*
X51000000Y-34000000D02*
X50000000Y-33000000D01*
X28500000Y-56000000D02*
X28500000Y-55540000D01*
X28500000Y-55540000D02*
X31960000Y-52080000D01*
X69000000Y-51000000D02*
X63000000Y-57000000D01*
X63000000Y-57000000D02*
X29500000Y-57000000D01*
X29500000Y-57000000D02*
X28500000Y-56000000D01*
X51500000Y-34000000D02*
X51000000Y-34000000D01*
X50000000Y-33000000D02*
X49000000Y-33000000D01*
%TO.N,/SWDIO*%
X39000000Y-45500000D02*
X57000000Y-45500000D01*
X57000000Y-45500000D02*
X61000000Y-41500000D01*
X38500000Y-45000000D02*
X39000000Y-45500000D01*
%TO.N,/SWCLK*%
X38500000Y-43500000D02*
X48500000Y-43500000D01*
X48500000Y-43500000D02*
X58000000Y-34000000D01*
%TD*%
M02*
