%TF.GenerationSoftware,KiCad,Pcbnew,8.0.3*%
%TF.CreationDate,2024-11-23T22:21:16-05:00*%
%TF.ProjectId,MH24BN0001_hw,4d483234-424e-4303-9030-315f68772e6b,rev?*%
%TF.SameCoordinates,Original*%
%TF.FileFunction,Copper,L1,Top*%
%TF.FilePolarity,Positive*%
%FSLAX46Y46*%
G04 Gerber Fmt 4.6, Leading zero omitted, Abs format (unit mm)*
G04 Created by KiCad (PCBNEW 8.0.3) date 2024-11-23 22:21:16*
%MOMM*%
%LPD*%
G01*
G04 APERTURE LIST*
%TA.AperFunction,SMDPad,CuDef*%
%ADD10R,0.655600X0.800000*%
%TD*%
%TA.AperFunction,SMDPad,CuDef*%
%ADD11R,1.600000X0.300000*%
%TD*%
%TA.AperFunction,SMDPad,CuDef*%
%ADD12R,0.300000X1.600000*%
%TD*%
%TA.AperFunction,SMDPad,CuDef*%
%ADD13R,0.800000X0.655600*%
%TD*%
%TA.AperFunction,ComponentPad*%
%ADD14C,1.530000*%
%TD*%
%TA.AperFunction,ComponentPad*%
%ADD15R,1.397000X1.397000*%
%TD*%
%TA.AperFunction,ComponentPad*%
%ADD16C,1.397000*%
%TD*%
%TA.AperFunction,ComponentPad*%
%ADD17C,1.524000*%
%TD*%
%TA.AperFunction,SMDPad,CuDef*%
%ADD18R,0.279400X0.254000*%
%TD*%
%TA.AperFunction,SMDPad,CuDef*%
%ADD19R,0.254000X0.279400*%
%TD*%
%TA.AperFunction,ViaPad*%
%ADD20C,0.600000*%
%TD*%
%TA.AperFunction,Conductor*%
%ADD21C,0.200000*%
%TD*%
G04 APERTURE END LIST*
D10*
%TO.P,C2,1*%
%TO.N,+3.3V*%
X57327800Y-50000000D03*
%TO.P,C2,2*%
%TO.N,GND*%
X55672200Y-50000000D03*
%TD*%
D11*
%TO.P,U1,1,VBAT*%
%TO.N,+3.3V*%
X45900000Y-38250000D03*
%TO.P,U1,2,PC13*%
%TO.N,unconnected-(U1-PC13-Pad2)*%
X45900000Y-38750000D03*
%TO.P,U1,3,PC14*%
%TO.N,unconnected-(U1-PC14-Pad3)*%
X45900000Y-39250000D03*
%TO.P,U1,4,PC15*%
%TO.N,unconnected-(U1-PC15-Pad4)*%
X45900000Y-39750000D03*
%TO.P,U1,5,PH0*%
%TO.N,unconnected-(U1-PH0-Pad5)*%
X45900000Y-40250000D03*
%TO.P,U1,6,PH1*%
%TO.N,unconnected-(U1-PH1-Pad6)*%
X45900000Y-40750000D03*
%TO.P,U1,7,NRST*%
%TO.N,/NRST*%
X45900000Y-41250000D03*
%TO.P,U1,8,PC0*%
%TO.N,unconnected-(U1-PC0-Pad8)*%
X45900000Y-41750000D03*
%TO.P,U1,9,PC1*%
%TO.N,unconnected-(U1-PC1-Pad9)*%
X45900000Y-42250000D03*
%TO.P,U1,10,PC2*%
%TO.N,unconnected-(U1-PC2-Pad10)*%
X45900000Y-42750000D03*
%TO.P,U1,11,PC3*%
%TO.N,unconnected-(U1-PC3-Pad11)*%
X45900000Y-43250000D03*
%TO.P,U1,12,VREF-*%
%TO.N,GND*%
X45900000Y-43750000D03*
%TO.P,U1,13,VREF+*%
%TO.N,+3.3V*%
X45900000Y-44250000D03*
%TO.P,U1,14,PA0*%
%TO.N,unconnected-(U1-PA0-Pad14)*%
X45900000Y-44750000D03*
%TO.P,U1,15,PA1*%
%TO.N,unconnected-(U1-PA1-Pad15)*%
X45900000Y-45250000D03*
%TO.P,U1,16,PA2*%
%TO.N,unconnected-(U1-PA2-Pad16)*%
X45900000Y-45750000D03*
D12*
%TO.P,U1,17,PA3*%
%TO.N,unconnected-(U1-PA3-Pad17)*%
X47750000Y-47600000D03*
%TO.P,U1,18,VSS*%
%TO.N,GND*%
X48250000Y-47600000D03*
%TO.P,U1,19,VDD*%
%TO.N,+3.3V*%
X48750000Y-47600000D03*
%TO.P,U1,20,PA4*%
%TO.N,unconnected-(U1-PA4-Pad20)*%
X49250000Y-47600000D03*
%TO.P,U1,21,PA5*%
%TO.N,unconnected-(U1-PA5-Pad21)*%
X49750000Y-47600000D03*
%TO.P,U1,22,PA6*%
%TO.N,unconnected-(U1-PA6-Pad22)*%
X50250000Y-47600000D03*
%TO.P,U1,23,PA7*%
%TO.N,unconnected-(U1-PA7-Pad23)*%
X50750000Y-47600000D03*
%TO.P,U1,24,PC4*%
%TO.N,unconnected-(U1-PC4-Pad24)*%
X51250000Y-47600000D03*
%TO.P,U1,25,PC5*%
%TO.N,unconnected-(U1-PC5-Pad25)*%
X51750000Y-47600000D03*
%TO.P,U1,26,PB0*%
%TO.N,unconnected-(U1-PB0-Pad26)*%
X52250000Y-47600000D03*
%TO.P,U1,27,PB1*%
%TO.N,unconnected-(U1-PB1-Pad27)*%
X52750000Y-47600000D03*
%TO.P,U1,28,PB2*%
%TO.N,unconnected-(U1-PB2-Pad28)*%
X53250000Y-47600000D03*
%TO.P,U1,29,PB10*%
%TO.N,unconnected-(U1-PB10-Pad29)*%
X53750000Y-47600000D03*
%TO.P,U1,30,VCAP1*%
%TO.N,+3.3V*%
X54250000Y-47600000D03*
%TO.P,U1,31,VSS__1*%
%TO.N,GND*%
X54750000Y-47600000D03*
%TO.P,U1,32,VDD__1*%
%TO.N,+3.3V*%
X55250000Y-47600000D03*
D11*
%TO.P,U1,33,PB12*%
%TO.N,unconnected-(U1-PB12-Pad33)*%
X57100000Y-45750000D03*
%TO.P,U1,34,PB13*%
%TO.N,unconnected-(U1-PB13-Pad34)*%
X57100000Y-45250000D03*
%TO.P,U1,35,PB14*%
%TO.N,unconnected-(U1-PB14-Pad35)*%
X57100000Y-44750000D03*
%TO.P,U1,36,PB15*%
%TO.N,unconnected-(U1-PB15-Pad36)*%
X57100000Y-44250000D03*
%TO.P,U1,37,PC6*%
%TO.N,unconnected-(U1-PC6-Pad37)*%
X57100000Y-43750000D03*
%TO.P,U1,38,PC7*%
%TO.N,unconnected-(U1-PC7-Pad38)*%
X57100000Y-43250000D03*
%TO.P,U1,39,PC8*%
%TO.N,unconnected-(U1-PC8-Pad39)*%
X57100000Y-42750000D03*
%TO.P,U1,40,PC9*%
%TO.N,unconnected-(U1-PC9-Pad40)*%
X57100000Y-42250000D03*
%TO.P,U1,41,PA8*%
%TO.N,unconnected-(U1-PA8-Pad41)*%
X57100000Y-41750000D03*
%TO.P,U1,42,PA9*%
%TO.N,/MCU_TX*%
X57100000Y-41250000D03*
%TO.P,U1,43,PA10*%
%TO.N,/MCU_RX*%
X57100000Y-40750000D03*
%TO.P,U1,44,PA11*%
%TO.N,unconnected-(U1-PA11-Pad44)*%
X57100000Y-40250000D03*
%TO.P,U1,45,PA12*%
%TO.N,unconnected-(U1-PA12-Pad45)*%
X57100000Y-39750000D03*
%TO.P,U1,46,PA13*%
%TO.N,/SWDIO*%
X57100000Y-39250000D03*
%TO.P,U1,47,VSS__2*%
%TO.N,GND*%
X57100000Y-38750000D03*
%TO.P,U1,48,VDD__2*%
%TO.N,+3.3V*%
X57100000Y-38250000D03*
D12*
%TO.P,U1,49,PA14*%
%TO.N,/SWCLK*%
X55250000Y-36400000D03*
%TO.P,U1,50,PA15*%
%TO.N,unconnected-(U1-PA15-Pad50)*%
X54750000Y-36400000D03*
%TO.P,U1,51,PC10*%
%TO.N,unconnected-(U1-PC10-Pad51)*%
X54250000Y-36400000D03*
%TO.P,U1,52,PC11*%
%TO.N,unconnected-(U1-PC11-Pad52)*%
X53750000Y-36400000D03*
%TO.P,U1,53,PC12*%
%TO.N,unconnected-(U1-PC12-Pad53)*%
X53250000Y-36400000D03*
%TO.P,U1,54,PD2*%
%TO.N,unconnected-(U1-PD2-Pad54)*%
X52750000Y-36400000D03*
%TO.P,U1,55,PB3*%
%TO.N,unconnected-(U1-PB3-Pad55)*%
X52250000Y-36400000D03*
%TO.P,U1,56,PB4*%
%TO.N,unconnected-(U1-PB4-Pad56)*%
X51750000Y-36400000D03*
%TO.P,U1,57,PB5*%
%TO.N,unconnected-(U1-PB5-Pad57)*%
X51250000Y-36400000D03*
%TO.P,U1,58,PB6*%
%TO.N,/SCL*%
X50750000Y-36400000D03*
%TO.P,U1,59,PB7*%
%TO.N,/SDA*%
X50250000Y-36400000D03*
%TO.P,U1,60,BOOT0*%
%TO.N,Net-(U1-BOOT0)*%
X49750000Y-36400000D03*
%TO.P,U1,61,PB8*%
%TO.N,unconnected-(U1-PB8-Pad61)*%
X49250000Y-36400000D03*
%TO.P,U1,62,PB9*%
%TO.N,unconnected-(U1-PB9-Pad62)*%
X48750000Y-36400000D03*
%TO.P,U1,63,VSS__3*%
%TO.N,GND*%
X48250000Y-36400000D03*
%TO.P,U1,64,VDD__3*%
%TO.N,+3.3V*%
X47750000Y-36400000D03*
%TD*%
D13*
%TO.P,C6,1*%
%TO.N,+3.3V*%
X42827800Y-38327800D03*
%TO.P,C6,2*%
%TO.N,GND*%
X42827800Y-36672200D03*
%TD*%
D14*
%TO.P,J1,1*%
%TO.N,+3.3V*%
X34500000Y-54620000D03*
%TO.P,J1,2*%
X31960000Y-54620000D03*
%TO.P,J1,3*%
%TO.N,GND*%
X34500000Y-52080000D03*
%TO.P,J1,4*%
X31960000Y-52080000D03*
%TO.P,J1,5*%
X34500000Y-49540000D03*
%TO.P,J1,6*%
X31960000Y-49540000D03*
%TO.P,J1,7*%
%TO.N,/SWDIO*%
X34500000Y-47000000D03*
%TO.P,J1,8*%
%TO.N,GND*%
X31960000Y-47000000D03*
%TO.P,J1,9*%
%TO.N,/SWCLK*%
X34500000Y-44460000D03*
%TO.P,J1,10*%
%TO.N,GND*%
X31960000Y-44460000D03*
%TO.P,J1,11*%
%TO.N,unconnected-(J1-Pad11)*%
X34500000Y-41920000D03*
%TO.P,J1,12*%
%TO.N,GND*%
X31960000Y-41920000D03*
%TO.P,J1,13*%
%TO.N,unconnected-(J1-Pad13)*%
X34500000Y-39380000D03*
%TO.P,J1,14*%
%TO.N,GND*%
X31960000Y-39380000D03*
%TO.P,J1,15*%
%TO.N,/NRST*%
X34500000Y-36840000D03*
%TO.P,J1,16*%
%TO.N,GND*%
X31960000Y-36840000D03*
%TO.P,J1,17*%
%TO.N,unconnected-(J1-Pad17)*%
X34500000Y-34300000D03*
%TO.P,J1,18*%
%TO.N,GND*%
X31960000Y-34300000D03*
%TO.P,J1,19*%
%TO.N,unconnected-(J1-Pad19)*%
X34500000Y-31760000D03*
%TO.P,J1,20*%
%TO.N,GND*%
X31960000Y-31760000D03*
%TD*%
D10*
%TO.P,C7,1*%
%TO.N,+3.3V*%
X52172200Y-50000000D03*
%TO.P,C7,2*%
%TO.N,GND*%
X53827800Y-50000000D03*
%TD*%
%TO.P,C4,1*%
%TO.N,+3.3V*%
X46672200Y-34500000D03*
%TO.P,C4,2*%
%TO.N,GND*%
X48327800Y-34500000D03*
%TD*%
%TO.P,C1,1*%
%TO.N,+3.3V*%
X49827800Y-50000000D03*
%TO.P,C1,2*%
%TO.N,GND*%
X48172200Y-50000000D03*
%TD*%
D15*
%TO.P,R1,1*%
%TO.N,GND*%
X41785000Y-29500000D03*
D16*
%TO.P,R1,2*%
%TO.N,Net-(U1-BOOT0)*%
X53215000Y-29500000D03*
%TD*%
D13*
%TO.P,C3,1*%
%TO.N,+3.3V*%
X60000000Y-38172200D03*
%TO.P,C3,2*%
%TO.N,GND*%
X60000000Y-39827800D03*
%TD*%
%TO.P,C5,1*%
%TO.N,+3.3V*%
X43500000Y-44827800D03*
%TO.P,C5,2*%
%TO.N,GND*%
X43500000Y-43172200D03*
%TD*%
D17*
%TO.P,SI1,1,VCC*%
%TO.N,+3.3V*%
X69000000Y-45000000D03*
%TO.P,SI1,2,TX*%
%TO.N,/MCU_RX*%
X69000000Y-47000000D03*
%TO.P,SI1,3,RX*%
%TO.N,/MCU_TX*%
X69000000Y-49000000D03*
%TO.P,SI1,4,GND*%
%TO.N,GND*%
X69000000Y-51000000D03*
%TD*%
D18*
%TO.P,U2,1,SCL/SPC*%
%TO.N,/SCL*%
X54762000Y-34250001D03*
%TO.P,U2,2,CS*%
%TO.N,+3.3V*%
X54762000Y-33750000D03*
%TO.P,U2,3,SDO/SA0*%
X54762000Y-33250000D03*
%TO.P,U2,4,SDA/SDI/SDO*%
%TO.N,/SDA*%
X54762000Y-32749999D03*
D19*
%TO.P,U2,5,NC*%
%TO.N,unconnected-(U2-NC-Pad5)*%
X54250000Y-32738000D03*
%TO.P,U2,6,GND*%
%TO.N,GND*%
X53750000Y-32738000D03*
D18*
%TO.P,U2,7,RES*%
X53238000Y-32749999D03*
%TO.P,U2,8,GND*%
X53238000Y-33250000D03*
%TO.P,U2,9,VDD*%
%TO.N,+3.3V*%
X53238000Y-33750000D03*
%TO.P,U2,10,VDDIO*%
X53238000Y-34250001D03*
D19*
%TO.P,U2,11,INT2*%
%TO.N,unconnected-(U2-INT2-Pad11)*%
X53750000Y-34262000D03*
%TO.P,U2,12,INT1*%
%TO.N,unconnected-(U2-INT1-Pad12)*%
X54250000Y-34262000D03*
%TD*%
D20*
%TO.N,+3.3V*%
X44000000Y-34500000D03*
X39000000Y-54000000D03*
X61500000Y-36000000D03*
%TO.N,GND*%
X49000000Y-33000000D03*
X39500000Y-33000000D03*
X51500000Y-34000000D03*
%TO.N,/SWDIO*%
X38500000Y-45000000D03*
X61000000Y-41500000D03*
%TO.N,/SWCLK*%
X58000000Y-34000000D03*
X38500000Y-43500000D03*
%TD*%
D21*
%TO.N,+3.3V*%
X55500000Y-33250000D02*
X55262000Y-33250000D01*
X52172200Y-50000000D02*
X52172200Y-49887978D01*
X53238000Y-33750000D02*
X53238000Y-34250001D01*
X45000000Y-38250000D02*
X45900000Y-38250000D01*
X54250000Y-48650000D02*
X54250000Y-47600000D01*
X48963900Y-51463900D02*
X50427800Y-50000000D01*
X48750000Y-48650000D02*
X48750000Y-47600000D01*
X48463900Y-51963900D02*
X48963900Y-51463900D01*
X39000000Y-48039822D02*
X42212022Y-44827800D01*
X50427800Y-50000000D02*
X52172200Y-50000000D01*
X47750000Y-36400000D02*
X45900000Y-38250000D01*
X42212022Y-44827800D02*
X43500000Y-44827800D01*
X53360178Y-48700000D02*
X54200000Y-48700000D01*
X58750000Y-33250000D02*
X55500000Y-33250000D01*
X57327800Y-50000000D02*
X57327800Y-49887978D01*
X57327800Y-49887978D02*
X55250000Y-47810178D01*
X43500000Y-44827800D02*
X44272200Y-44827800D01*
X47750000Y-36400000D02*
X46672200Y-35322200D01*
X49827800Y-50600000D02*
X49827800Y-50000000D01*
X57327800Y-50600000D02*
X57327800Y-50000000D01*
X44272200Y-44827800D02*
X44850000Y-44250000D01*
X49827800Y-50000000D02*
X49827800Y-49727800D01*
X34500000Y-54620000D02*
X38380000Y-54620000D01*
X61500000Y-36000000D02*
X58750000Y-33250000D01*
X31960000Y-54620000D02*
X34500000Y-54620000D01*
X55500000Y-33250000D02*
X54762000Y-33250000D01*
X46427800Y-54000000D02*
X48463900Y-51963900D01*
X42905600Y-38250000D02*
X45000000Y-38250000D01*
X59922200Y-38250000D02*
X60000000Y-38172200D01*
X52172200Y-49887978D02*
X53360178Y-48700000D01*
X46672200Y-35322200D02*
X46672200Y-34500000D01*
X54762000Y-33750000D02*
X53238000Y-33750000D01*
X38380000Y-54620000D02*
X39000000Y-54000000D01*
X44850000Y-44250000D02*
X45900000Y-44250000D01*
X55262000Y-33250000D02*
X54762000Y-33750000D01*
X42827800Y-38327800D02*
X42905600Y-38250000D01*
X48963900Y-51463900D02*
X56463900Y-51463900D01*
X48463900Y-51963900D02*
X49827800Y-50600000D01*
X44000000Y-34500000D02*
X46672200Y-34500000D01*
X39000000Y-54000000D02*
X39000000Y-48039822D01*
X39000000Y-54000000D02*
X46427800Y-54000000D01*
X55250000Y-47810178D02*
X55250000Y-47600000D01*
X61500000Y-36000000D02*
X61500000Y-36672200D01*
X57100000Y-38250000D02*
X59922200Y-38250000D01*
X56463900Y-51463900D02*
X57327800Y-50600000D01*
X54200000Y-48700000D02*
X54250000Y-48650000D01*
X49827800Y-49727800D02*
X48750000Y-48650000D01*
X61500000Y-36672200D02*
X60000000Y-38172200D01*
%TO.N,GND*%
X31960000Y-44460000D02*
X31960000Y-47000000D01*
X54000000Y-40800000D02*
X55150000Y-39650000D01*
X48327800Y-34387978D02*
X47739822Y-33800000D01*
X60000000Y-39827800D02*
X59527800Y-39827800D01*
X41785000Y-30000000D02*
X41285000Y-29500000D01*
X31960000Y-52080000D02*
X31960000Y-49540000D01*
X31960000Y-47000000D02*
X31960000Y-49540000D01*
X53238000Y-32749999D02*
X52250001Y-32749999D01*
X53827800Y-50000000D02*
X54750000Y-49077800D01*
X52000000Y-32500000D02*
X52000000Y-33000000D01*
X54750000Y-49077800D02*
X54750000Y-47600000D01*
X52250000Y-33250000D02*
X51500000Y-34000000D01*
X53238000Y-33250000D02*
X53238000Y-32749999D01*
X31960000Y-43000000D02*
X31960000Y-44460000D01*
X59527800Y-39827800D02*
X58450000Y-38750000D01*
X48250000Y-46000000D02*
X48250000Y-47600000D01*
X31960000Y-34300000D02*
X31960000Y-36840000D01*
X45900000Y-43750000D02*
X46950000Y-43750000D01*
X54200000Y-46000000D02*
X54750000Y-46550000D01*
X56050000Y-38750000D02*
X57100000Y-38750000D01*
X47739822Y-33800000D02*
X43851471Y-33800000D01*
X45900000Y-43750000D02*
X44584314Y-43750000D01*
X39500000Y-33000000D02*
X39500000Y-29500000D01*
X52250000Y-33250000D02*
X53238000Y-33250000D01*
X31960000Y-31760000D02*
X31960000Y-34300000D01*
X41285000Y-29500000D02*
X39500000Y-29500000D01*
X34500000Y-52080000D02*
X31960000Y-52080000D01*
X42827800Y-31042800D02*
X41785000Y-30000000D01*
X31960000Y-30040000D02*
X31960000Y-31760000D01*
X32500000Y-29500000D02*
X31960000Y-30040000D01*
X48250000Y-34577800D02*
X48250000Y-36400000D01*
X53750000Y-32250000D02*
X53000000Y-31500000D01*
X52000000Y-33000000D02*
X52250000Y-33250000D01*
X55150000Y-39650000D02*
X54900000Y-39900000D01*
X54900000Y-39900000D02*
X50700000Y-39900000D01*
X53000000Y-31500000D02*
X52000000Y-32500000D01*
X31960000Y-36840000D02*
X31960000Y-39380000D01*
X48327800Y-34500000D02*
X48327800Y-33672200D01*
X31960000Y-43000000D02*
X38151471Y-43000000D01*
X43227800Y-42900000D02*
X43500000Y-43172200D01*
X50700000Y-39900000D02*
X48250000Y-37450000D01*
X53238000Y-32749999D02*
X53738001Y-32749999D01*
X46950000Y-43750000D02*
X48250000Y-45050000D01*
X48327800Y-33672200D02*
X49000000Y-33000000D01*
X39500000Y-29500000D02*
X32500000Y-29500000D01*
X34500000Y-49540000D02*
X34500000Y-52080000D01*
X38151471Y-43000000D02*
X38251471Y-42900000D01*
X31960000Y-41920000D02*
X31960000Y-43000000D01*
X69000000Y-51000000D02*
X69000000Y-51500000D01*
X44006514Y-43172200D02*
X43500000Y-43172200D01*
X54750000Y-46550000D02*
X54750000Y-47600000D01*
X31960000Y-49540000D02*
X34500000Y-49540000D01*
X54000000Y-46000000D02*
X54200000Y-46000000D01*
X31960000Y-31760000D02*
X31960000Y-30960000D01*
X54000000Y-46000000D02*
X54000000Y-40800000D01*
X58450000Y-38750000D02*
X57100000Y-38750000D01*
X52250001Y-32749999D02*
X52000000Y-33000000D01*
X42827800Y-34823671D02*
X42827800Y-36672200D01*
X31960000Y-39380000D02*
X31960000Y-41920000D01*
X44584314Y-43750000D02*
X44006514Y-43172200D01*
X48250000Y-49922200D02*
X48250000Y-47600000D01*
X53738001Y-32749999D02*
X53750000Y-32738000D01*
X48327800Y-34500000D02*
X48250000Y-34577800D01*
X48327800Y-34500000D02*
X48327800Y-34387978D01*
X38251471Y-42900000D02*
X43227800Y-42900000D01*
X43851471Y-33800000D02*
X42827800Y-34823671D01*
X55150000Y-39650000D02*
X56050000Y-38750000D01*
X48172200Y-50000000D02*
X48250000Y-49922200D01*
X55672200Y-50000000D02*
X54750000Y-49077800D01*
X42827800Y-36672200D02*
X42827800Y-31042800D01*
X48250000Y-45050000D02*
X48250000Y-46000000D01*
X48250000Y-46000000D02*
X54000000Y-46000000D01*
X53750000Y-32738000D02*
X53750000Y-32250000D01*
X48250000Y-37450000D02*
X48250000Y-36400000D01*
%TO.N,/SWDIO*%
X34500000Y-47000000D02*
X36500000Y-45000000D01*
X61000000Y-41500000D02*
X60400000Y-41500000D01*
X60400000Y-41500000D02*
X58150000Y-39250000D01*
X36500000Y-45000000D02*
X38500000Y-45000000D01*
X58150000Y-39250000D02*
X57100000Y-39250000D01*
%TO.N,/SWCLK*%
X55600000Y-36400000D02*
X55250000Y-36400000D01*
X34500000Y-44460000D02*
X37540000Y-44460000D01*
X37540000Y-44460000D02*
X38500000Y-43500000D01*
X58000000Y-34000000D02*
X55600000Y-36400000D01*
%TO.N,/NRST*%
X38910000Y-41250000D02*
X45900000Y-41250000D01*
X34500000Y-36840000D02*
X38910000Y-41250000D01*
%TO.N,Net-(U1-BOOT0)*%
X49750000Y-36400000D02*
X49750000Y-33465000D01*
X49750000Y-33465000D02*
X53215000Y-30000000D01*
%TO.N,/SDA*%
X53165686Y-31100000D02*
X52680686Y-31100000D01*
X52680686Y-31100000D02*
X50250000Y-33530686D01*
X53878700Y-31500000D02*
X53565686Y-31500000D01*
X53565686Y-31500000D02*
X53165686Y-31100000D01*
X50250000Y-33530686D02*
X50250000Y-36400000D01*
X54762000Y-32383300D02*
X53878700Y-31500000D01*
X54762000Y-32749999D02*
X54762000Y-32383300D01*
%TO.N,/MCU_TX*%
X69000000Y-49000000D02*
X66000000Y-49000000D01*
X58250000Y-41250000D02*
X57100000Y-41250000D01*
X66000000Y-49000000D02*
X58250000Y-41250000D01*
%TO.N,/SCL*%
X51362000Y-34738000D02*
X50750000Y-35350000D01*
X50750000Y-35350000D02*
X50750000Y-36400000D01*
X54762000Y-34738000D02*
X51362000Y-34738000D01*
X54762000Y-34250001D02*
X54762000Y-34738000D01*
%TO.N,/MCU_RX*%
X69000000Y-47000000D02*
X64500000Y-42500000D01*
X60834314Y-42500000D02*
X59084314Y-40750000D01*
X59084314Y-40750000D02*
X57100000Y-40750000D01*
X64500000Y-42500000D02*
X60834314Y-42500000D01*
%TD*%
M02*
