%TF.GenerationSoftware,KiCad,Pcbnew,8.0.3*%
%TF.CreationDate,2024-11-24T17:28:35-05:00*%
%TF.ProjectId,MH24BN0001_hw,4d483234-424e-4303-9030-315f68772e6b,rev?*%
%TF.SameCoordinates,Original*%
%TF.FileFunction,Copper,L1,Top*%
%TF.FilePolarity,Positive*%
%FSLAX46Y46*%
G04 Gerber Fmt 4.6, Leading zero omitted, Abs format (unit mm)*
G04 Created by KiCad (PCBNEW 8.0.3) date 2024-11-24 17:28:35*
%MOMM*%
%LPD*%
G01*
G04 APERTURE LIST*
%ADD10C,0.300000*%
%TA.AperFunction,NonConductor*%
%ADD11C,0.300000*%
%TD*%
%TA.AperFunction,SMDPad,CuDef*%
%ADD12R,0.655600X0.800000*%
%TD*%
%TA.AperFunction,SMDPad,CuDef*%
%ADD13R,1.600000X0.300000*%
%TD*%
%TA.AperFunction,SMDPad,CuDef*%
%ADD14R,0.300000X1.600000*%
%TD*%
%TA.AperFunction,SMDPad,CuDef*%
%ADD15R,0.800000X0.655600*%
%TD*%
%TA.AperFunction,ComponentPad*%
%ADD16C,1.530000*%
%TD*%
%TA.AperFunction,ComponentPad*%
%ADD17R,1.397000X1.397000*%
%TD*%
%TA.AperFunction,ComponentPad*%
%ADD18C,1.397000*%
%TD*%
%TA.AperFunction,ComponentPad*%
%ADD19C,1.524000*%
%TD*%
%TA.AperFunction,SMDPad,CuDef*%
%ADD20R,0.279400X0.254000*%
%TD*%
%TA.AperFunction,SMDPad,CuDef*%
%ADD21R,0.254000X0.279400*%
%TD*%
%TA.AperFunction,ViaPad*%
%ADD22C,0.600000*%
%TD*%
%TA.AperFunction,Conductor*%
%ADD23C,0.200000*%
%TD*%
G04 APERTURE END LIST*
D10*
D11*
G36*
X59319469Y-58220924D02*
G01*
X59601936Y-58220924D01*
X59952180Y-59284113D01*
X60307554Y-58220924D01*
X60585624Y-58220924D01*
X60841346Y-59745000D01*
X60563276Y-59745000D01*
X60400244Y-58782561D01*
X60077843Y-59745000D01*
X59823220Y-59745000D01*
X59504849Y-58782561D01*
X59338886Y-59745000D01*
X59057885Y-59745000D01*
X59319469Y-58220924D01*
G37*
G36*
X61061165Y-58220924D02*
G01*
X61353524Y-58220924D01*
X61353524Y-58783660D01*
X61860572Y-58783660D01*
X61860572Y-58220924D01*
X62152198Y-58220924D01*
X62152198Y-59745000D01*
X61860572Y-59745000D01*
X61860572Y-59065027D01*
X61353524Y-59065027D01*
X61353524Y-59745000D01*
X61061165Y-59745000D01*
X61061165Y-58220924D01*
G37*
G36*
X62684159Y-58736765D02*
G01*
X62402791Y-58736765D01*
X62409542Y-58660846D01*
X62426097Y-58576663D01*
X62451874Y-58500027D01*
X62486874Y-58430939D01*
X62531095Y-58369398D01*
X62556664Y-58341458D01*
X62613078Y-58292527D01*
X62686058Y-58248236D01*
X62754751Y-58221239D01*
X62829111Y-58204367D01*
X62909139Y-58197617D01*
X62923028Y-58197477D01*
X62998141Y-58202085D01*
X63075550Y-58218013D01*
X63146590Y-58245318D01*
X63166660Y-58255729D01*
X63228685Y-58297217D01*
X63282409Y-58348865D01*
X63327832Y-58410675D01*
X63335921Y-58424256D01*
X63369344Y-58493307D01*
X63391812Y-58570090D01*
X63399302Y-58647739D01*
X63393216Y-58725434D01*
X63377588Y-58797270D01*
X63352343Y-58871716D01*
X63322365Y-58938998D01*
X63282765Y-59009854D01*
X63239110Y-59074941D01*
X63186491Y-59144046D01*
X63135794Y-59204704D01*
X63078872Y-59268152D01*
X63041730Y-59307561D01*
X62871737Y-59487079D01*
X63411758Y-59487079D01*
X63411758Y-59745000D01*
X62361758Y-59745000D01*
X62361758Y-59608712D01*
X62830338Y-59137201D01*
X62890080Y-59075935D01*
X62941810Y-59019358D01*
X62992037Y-58959276D01*
X63036086Y-58898425D01*
X63056385Y-58864626D01*
X63088507Y-58795978D01*
X63109279Y-58720988D01*
X63112805Y-58678147D01*
X63100005Y-58603690D01*
X63058137Y-58538820D01*
X63054553Y-58535265D01*
X62992616Y-58494768D01*
X62916029Y-58479065D01*
X62904710Y-58478845D01*
X62829496Y-58492168D01*
X62766064Y-58532139D01*
X62750104Y-58548454D01*
X62709351Y-58612937D01*
X62688692Y-58687057D01*
X62684159Y-58736765D01*
G37*
G36*
X64478611Y-59182264D02*
G01*
X64613799Y-59182264D01*
X64613799Y-59440184D01*
X64478611Y-59440184D01*
X64478611Y-59745000D01*
X64196510Y-59745000D01*
X64196510Y-59440184D01*
X63534856Y-59440184D01*
X63534856Y-59182264D01*
X63850296Y-59182264D01*
X64196510Y-59182264D01*
X64196510Y-58669720D01*
X63850296Y-59182264D01*
X63534856Y-59182264D01*
X63534856Y-59153321D01*
X64190282Y-58197477D01*
X64478611Y-58197477D01*
X64478611Y-59182264D01*
G37*
G36*
X65152057Y-58221851D02*
G01*
X65228152Y-58225278D01*
X65302066Y-58232284D01*
X65374881Y-58245679D01*
X65380966Y-58247302D01*
X65453017Y-58272309D01*
X65522740Y-58311378D01*
X65581588Y-58362326D01*
X65597121Y-58379926D01*
X65639625Y-58443739D01*
X65666387Y-58514279D01*
X65677406Y-58591545D01*
X65677721Y-58607805D01*
X65669671Y-58684634D01*
X65645521Y-58754379D01*
X65641085Y-58763143D01*
X65596675Y-58826550D01*
X65541909Y-58878508D01*
X65522016Y-58893935D01*
X65586428Y-58929152D01*
X65647778Y-58973698D01*
X65702146Y-59029310D01*
X65723883Y-59059532D01*
X65757693Y-59125127D01*
X65778981Y-59197806D01*
X65787746Y-59277569D01*
X65787997Y-59294371D01*
X65781557Y-59373440D01*
X65762237Y-59448073D01*
X65730037Y-59518269D01*
X65722051Y-59531775D01*
X65677114Y-59593378D01*
X65619088Y-59648991D01*
X65552058Y-59691877D01*
X65479300Y-59719891D01*
X65400604Y-59736232D01*
X65320141Y-59743703D01*
X65264829Y-59745000D01*
X64840212Y-59745000D01*
X64840212Y-59463632D01*
X65128541Y-59463632D01*
X65200715Y-59463632D01*
X65283147Y-59460724D01*
X65358366Y-59450500D01*
X65429807Y-59425419D01*
X65442515Y-59417103D01*
X65489227Y-59360042D01*
X65504736Y-59287415D01*
X65504797Y-59281915D01*
X65492704Y-59207130D01*
X65452633Y-59142415D01*
X65431524Y-59123279D01*
X65362968Y-59087782D01*
X65285059Y-59070716D01*
X65209130Y-59065255D01*
X65188258Y-59065027D01*
X65128541Y-59065027D01*
X65128541Y-59463632D01*
X64840212Y-59463632D01*
X64840212Y-58807107D01*
X65128541Y-58807107D01*
X65191556Y-58807107D01*
X65268039Y-58800154D01*
X65337602Y-58772505D01*
X65347627Y-58764975D01*
X65390147Y-58703917D01*
X65398551Y-58649937D01*
X65379661Y-58575920D01*
X65350191Y-58542226D01*
X65279789Y-58509935D01*
X65202913Y-58502292D01*
X65128541Y-58502292D01*
X65128541Y-58807107D01*
X64840212Y-58807107D01*
X64840212Y-58220924D01*
X65078349Y-58220924D01*
X65152057Y-58221851D01*
G37*
G36*
X66058740Y-58220924D02*
G01*
X66334979Y-58220924D01*
X66985275Y-59224030D01*
X66985275Y-58220924D01*
X67273604Y-58220924D01*
X67273604Y-59745000D01*
X66996632Y-59745000D01*
X66347435Y-58745191D01*
X66347435Y-59745000D01*
X66058740Y-59745000D01*
X66058740Y-58220924D01*
G37*
G36*
X68104404Y-58202514D02*
G01*
X68178798Y-58217627D01*
X68255650Y-58246671D01*
X68310415Y-58278077D01*
X68373662Y-58329932D01*
X68422583Y-58387314D01*
X68464635Y-58455320D01*
X68495795Y-58523541D01*
X68521348Y-58602018D01*
X68538255Y-58679135D01*
X68550551Y-58765345D01*
X68557276Y-58844133D01*
X68560798Y-58929235D01*
X68561374Y-58983328D01*
X68559746Y-59073284D01*
X68554863Y-59156764D01*
X68546723Y-59233769D01*
X68532658Y-59317626D01*
X68513905Y-59392159D01*
X68494696Y-59447145D01*
X68463476Y-59515404D01*
X68422386Y-59583153D01*
X68375525Y-59639956D01*
X68315910Y-59690778D01*
X68248184Y-59728323D01*
X68171126Y-59753580D01*
X68094796Y-59765716D01*
X68032711Y-59768447D01*
X67950576Y-59763570D01*
X67875266Y-59748938D01*
X67798697Y-59720818D01*
X67745115Y-59690411D01*
X67683580Y-59639877D01*
X67635598Y-59584155D01*
X67593936Y-59518267D01*
X67562665Y-59452274D01*
X67536970Y-59375921D01*
X67519968Y-59300179D01*
X67507603Y-59214930D01*
X67500841Y-59136629D01*
X67497299Y-59051726D01*
X67496747Y-59000181D01*
X67785415Y-59000181D01*
X67787087Y-59082337D01*
X67792105Y-59156158D01*
X67802542Y-59233738D01*
X67820807Y-59309077D01*
X67853925Y-59381933D01*
X67905831Y-59441796D01*
X67973416Y-59478762D01*
X68031612Y-59487079D01*
X68104392Y-59473014D01*
X68165014Y-59430819D01*
X68198674Y-59387062D01*
X68231532Y-59316628D01*
X68252582Y-59238319D01*
X68264904Y-59158807D01*
X68271138Y-59083809D01*
X68273705Y-59000869D01*
X68273778Y-58983328D01*
X68272133Y-58898030D01*
X68267195Y-58821427D01*
X68256926Y-58740978D01*
X68238954Y-58662945D01*
X68210515Y-58594629D01*
X68206367Y-58587655D01*
X68160336Y-58530274D01*
X68094802Y-58489471D01*
X68031612Y-58478845D01*
X67958412Y-58491563D01*
X67901552Y-58523907D01*
X67854454Y-58580402D01*
X67823013Y-58652415D01*
X67815090Y-58678879D01*
X67799441Y-58757326D01*
X67791095Y-58834457D01*
X67786835Y-58912428D01*
X67785444Y-58987046D01*
X67785415Y-59000181D01*
X67496747Y-59000181D01*
X67496720Y-58997616D01*
X67497853Y-58922398D01*
X67502891Y-58828309D01*
X67511958Y-58741306D01*
X67525056Y-58661390D01*
X67542183Y-58588560D01*
X67569260Y-58507490D01*
X67602633Y-58437492D01*
X67625680Y-58400809D01*
X67673182Y-58342232D01*
X67737410Y-58285045D01*
X67809521Y-58242154D01*
X67889514Y-58213561D01*
X67962197Y-58200654D01*
X68024284Y-58197477D01*
X68104404Y-58202514D01*
G37*
G36*
X69279700Y-58202514D02*
G01*
X69354095Y-58217627D01*
X69430947Y-58246671D01*
X69485711Y-58278077D01*
X69548959Y-58329932D01*
X69597880Y-58387314D01*
X69639931Y-58455320D01*
X69671092Y-58523541D01*
X69696644Y-58602018D01*
X69713552Y-58679135D01*
X69725848Y-58765345D01*
X69732572Y-58844133D01*
X69736094Y-58929235D01*
X69736671Y-58983328D01*
X69735043Y-59073284D01*
X69730159Y-59156764D01*
X69722020Y-59233769D01*
X69707955Y-59317626D01*
X69689202Y-59392159D01*
X69669993Y-59447145D01*
X69638772Y-59515404D01*
X69597682Y-59583153D01*
X69550822Y-59639956D01*
X69491207Y-59690778D01*
X69423481Y-59728323D01*
X69346423Y-59753580D01*
X69270093Y-59765716D01*
X69208007Y-59768447D01*
X69125873Y-59763570D01*
X69050562Y-59748938D01*
X68973994Y-59720818D01*
X68920411Y-59690411D01*
X68858877Y-59639877D01*
X68810895Y-59584155D01*
X68769232Y-59518267D01*
X68737962Y-59452274D01*
X68712266Y-59375921D01*
X68695265Y-59300179D01*
X68682900Y-59214930D01*
X68676138Y-59136629D01*
X68672596Y-59051726D01*
X68672043Y-59000181D01*
X68960711Y-59000181D01*
X68962384Y-59082337D01*
X68967402Y-59156158D01*
X68977839Y-59233738D01*
X68996104Y-59309077D01*
X69029221Y-59381933D01*
X69081127Y-59441796D01*
X69148713Y-59478762D01*
X69206908Y-59487079D01*
X69279689Y-59473014D01*
X69340310Y-59430819D01*
X69373970Y-59387062D01*
X69406828Y-59316628D01*
X69427878Y-59238319D01*
X69440200Y-59158807D01*
X69446434Y-59083809D01*
X69449002Y-59000869D01*
X69449075Y-58983328D01*
X69447429Y-58898030D01*
X69442492Y-58821427D01*
X69432222Y-58740978D01*
X69414250Y-58662945D01*
X69385811Y-58594629D01*
X69381664Y-58587655D01*
X69335632Y-58530274D01*
X69270099Y-58489471D01*
X69206908Y-58478845D01*
X69133709Y-58491563D01*
X69076849Y-58523907D01*
X69029751Y-58580402D01*
X68998309Y-58652415D01*
X68990387Y-58678879D01*
X68974738Y-58757326D01*
X68966391Y-58834457D01*
X68962131Y-58912428D01*
X68960740Y-58987046D01*
X68960711Y-59000181D01*
X68672043Y-59000181D01*
X68672016Y-58997616D01*
X68673150Y-58922398D01*
X68678187Y-58828309D01*
X68687255Y-58741306D01*
X68700352Y-58661390D01*
X68717480Y-58588560D01*
X68744556Y-58507490D01*
X68777930Y-58437492D01*
X68800976Y-58400809D01*
X68848479Y-58342232D01*
X68912707Y-58285045D01*
X68984818Y-58242154D01*
X69064811Y-58213561D01*
X69137494Y-58200654D01*
X69199581Y-58197477D01*
X69279700Y-58202514D01*
G37*
G36*
X70454997Y-58202514D02*
G01*
X70529392Y-58217627D01*
X70606243Y-58246671D01*
X70661008Y-58278077D01*
X70724255Y-58329932D01*
X70773176Y-58387314D01*
X70815228Y-58455320D01*
X70846388Y-58523541D01*
X70871941Y-58602018D01*
X70888848Y-58679135D01*
X70901144Y-58765345D01*
X70907869Y-58844133D01*
X70911391Y-58929235D01*
X70911967Y-58983328D01*
X70910340Y-59073284D01*
X70905456Y-59156764D01*
X70897316Y-59233769D01*
X70883251Y-59317626D01*
X70864498Y-59392159D01*
X70845289Y-59447145D01*
X70814069Y-59515404D01*
X70772979Y-59583153D01*
X70726118Y-59639956D01*
X70666503Y-59690778D01*
X70598777Y-59728323D01*
X70521719Y-59753580D01*
X70445390Y-59765716D01*
X70383304Y-59768447D01*
X70301169Y-59763570D01*
X70225859Y-59748938D01*
X70149290Y-59720818D01*
X70095708Y-59690411D01*
X70034174Y-59639877D01*
X69986191Y-59584155D01*
X69944529Y-59518267D01*
X69913258Y-59452274D01*
X69887563Y-59375921D01*
X69870561Y-59300179D01*
X69858196Y-59214930D01*
X69851434Y-59136629D01*
X69847892Y-59051726D01*
X69847340Y-59000181D01*
X70136008Y-59000181D01*
X70137680Y-59082337D01*
X70142698Y-59156158D01*
X70153135Y-59233738D01*
X70171400Y-59309077D01*
X70204518Y-59381933D01*
X70256424Y-59441796D01*
X70324010Y-59478762D01*
X70382205Y-59487079D01*
X70454985Y-59473014D01*
X70515607Y-59430819D01*
X70549267Y-59387062D01*
X70582125Y-59316628D01*
X70603175Y-59238319D01*
X70615497Y-59158807D01*
X70621731Y-59083809D01*
X70624298Y-59000869D01*
X70624371Y-58983328D01*
X70622726Y-58898030D01*
X70617788Y-58821427D01*
X70607519Y-58740978D01*
X70589547Y-58662945D01*
X70561108Y-58594629D01*
X70556960Y-58587655D01*
X70510929Y-58530274D01*
X70445395Y-58489471D01*
X70382205Y-58478845D01*
X70309005Y-58491563D01*
X70252145Y-58523907D01*
X70205048Y-58580402D01*
X70173606Y-58652415D01*
X70165683Y-58678879D01*
X70150034Y-58757326D01*
X70141688Y-58834457D01*
X70137428Y-58912428D01*
X70136037Y-58987046D01*
X70136008Y-59000181D01*
X69847340Y-59000181D01*
X69847313Y-58997616D01*
X69848446Y-58922398D01*
X69853484Y-58828309D01*
X69862551Y-58741306D01*
X69875649Y-58661390D01*
X69892776Y-58588560D01*
X69919853Y-58507490D01*
X69953226Y-58437492D01*
X69976273Y-58400809D01*
X70023775Y-58342232D01*
X70088003Y-58285045D01*
X70160114Y-58242154D01*
X70240108Y-58213561D01*
X70312790Y-58200654D01*
X70374877Y-58197477D01*
X70454997Y-58202514D01*
G37*
G36*
X71311304Y-58220924D02*
G01*
X71742882Y-58220924D01*
X71742882Y-59745000D01*
X71456385Y-59745000D01*
X71456385Y-58478845D01*
X71144242Y-58478845D01*
X71311304Y-58220924D01*
G37*
D12*
%TO.P,C2,1*%
%TO.N,+3.3V*%
X57327800Y-50000000D03*
%TO.P,C2,2*%
%TO.N,GND*%
X55672200Y-50000000D03*
%TD*%
D13*
%TO.P,U1,1,VBAT*%
%TO.N,+3.3V*%
X45900000Y-38250000D03*
%TO.P,U1,2,PC13*%
%TO.N,unconnected-(U1-PC13-Pad2)*%
X45900000Y-38750000D03*
%TO.P,U1,3,PC14*%
%TO.N,unconnected-(U1-PC14-Pad3)*%
X45900000Y-39250000D03*
%TO.P,U1,4,PC15*%
%TO.N,unconnected-(U1-PC15-Pad4)*%
X45900000Y-39750000D03*
%TO.P,U1,5,PH0*%
%TO.N,unconnected-(U1-PH0-Pad5)*%
X45900000Y-40250000D03*
%TO.P,U1,6,PH1*%
%TO.N,unconnected-(U1-PH1-Pad6)*%
X45900000Y-40750000D03*
%TO.P,U1,7,NRST*%
%TO.N,/NRST*%
X45900000Y-41250000D03*
%TO.P,U1,8,PC0*%
%TO.N,unconnected-(U1-PC0-Pad8)*%
X45900000Y-41750000D03*
%TO.P,U1,9,PC1*%
%TO.N,unconnected-(U1-PC1-Pad9)*%
X45900000Y-42250000D03*
%TO.P,U1,10,PC2*%
%TO.N,unconnected-(U1-PC2-Pad10)*%
X45900000Y-42750000D03*
%TO.P,U1,11,PC3*%
%TO.N,unconnected-(U1-PC3-Pad11)*%
X45900000Y-43250000D03*
%TO.P,U1,12,VREF-*%
%TO.N,GND*%
X45900000Y-43750000D03*
%TO.P,U1,13,VREF+*%
%TO.N,+3.3V*%
X45900000Y-44250000D03*
%TO.P,U1,14,PA0*%
%TO.N,unconnected-(U1-PA0-Pad14)*%
X45900000Y-44750000D03*
%TO.P,U1,15,PA1*%
%TO.N,unconnected-(U1-PA1-Pad15)*%
X45900000Y-45250000D03*
%TO.P,U1,16,PA2*%
%TO.N,unconnected-(U1-PA2-Pad16)*%
X45900000Y-45750000D03*
D14*
%TO.P,U1,17,PA3*%
%TO.N,unconnected-(U1-PA3-Pad17)*%
X47750000Y-47600000D03*
%TO.P,U1,18,VSS*%
%TO.N,GND*%
X48250000Y-47600000D03*
%TO.P,U1,19,VDD*%
%TO.N,+3.3V*%
X48750000Y-47600000D03*
%TO.P,U1,20,PA4*%
%TO.N,unconnected-(U1-PA4-Pad20)*%
X49250000Y-47600000D03*
%TO.P,U1,21,PA5*%
%TO.N,unconnected-(U1-PA5-Pad21)*%
X49750000Y-47600000D03*
%TO.P,U1,22,PA6*%
%TO.N,unconnected-(U1-PA6-Pad22)*%
X50250000Y-47600000D03*
%TO.P,U1,23,PA7*%
%TO.N,unconnected-(U1-PA7-Pad23)*%
X50750000Y-47600000D03*
%TO.P,U1,24,PC4*%
%TO.N,unconnected-(U1-PC4-Pad24)*%
X51250000Y-47600000D03*
%TO.P,U1,25,PC5*%
%TO.N,unconnected-(U1-PC5-Pad25)*%
X51750000Y-47600000D03*
%TO.P,U1,26,PB0*%
%TO.N,unconnected-(U1-PB0-Pad26)*%
X52250000Y-47600000D03*
%TO.P,U1,27,PB1*%
%TO.N,unconnected-(U1-PB1-Pad27)*%
X52750000Y-47600000D03*
%TO.P,U1,28,PB2*%
%TO.N,unconnected-(U1-PB2-Pad28)*%
X53250000Y-47600000D03*
%TO.P,U1,29,PB10*%
%TO.N,unconnected-(U1-PB10-Pad29)*%
X53750000Y-47600000D03*
%TO.P,U1,30,VCAP1*%
%TO.N,+3.3V*%
X54250000Y-47600000D03*
%TO.P,U1,31,VSS__1*%
%TO.N,GND*%
X54750000Y-47600000D03*
%TO.P,U1,32,VDD__1*%
%TO.N,+3.3V*%
X55250000Y-47600000D03*
D13*
%TO.P,U1,33,PB12*%
%TO.N,unconnected-(U1-PB12-Pad33)*%
X57100000Y-45750000D03*
%TO.P,U1,34,PB13*%
%TO.N,unconnected-(U1-PB13-Pad34)*%
X57100000Y-45250000D03*
%TO.P,U1,35,PB14*%
%TO.N,unconnected-(U1-PB14-Pad35)*%
X57100000Y-44750000D03*
%TO.P,U1,36,PB15*%
%TO.N,unconnected-(U1-PB15-Pad36)*%
X57100000Y-44250000D03*
%TO.P,U1,37,PC6*%
%TO.N,unconnected-(U1-PC6-Pad37)*%
X57100000Y-43750000D03*
%TO.P,U1,38,PC7*%
%TO.N,unconnected-(U1-PC7-Pad38)*%
X57100000Y-43250000D03*
%TO.P,U1,39,PC8*%
%TO.N,unconnected-(U1-PC8-Pad39)*%
X57100000Y-42750000D03*
%TO.P,U1,40,PC9*%
%TO.N,unconnected-(U1-PC9-Pad40)*%
X57100000Y-42250000D03*
%TO.P,U1,41,PA8*%
%TO.N,unconnected-(U1-PA8-Pad41)*%
X57100000Y-41750000D03*
%TO.P,U1,42,PA9*%
%TO.N,/MCU_TX*%
X57100000Y-41250000D03*
%TO.P,U1,43,PA10*%
%TO.N,/MCU_RX*%
X57100000Y-40750000D03*
%TO.P,U1,44,PA11*%
%TO.N,unconnected-(U1-PA11-Pad44)*%
X57100000Y-40250000D03*
%TO.P,U1,45,PA12*%
%TO.N,unconnected-(U1-PA12-Pad45)*%
X57100000Y-39750000D03*
%TO.P,U1,46,PA13*%
%TO.N,/SWDIO*%
X57100000Y-39250000D03*
%TO.P,U1,47,VSS__2*%
%TO.N,GND*%
X57100000Y-38750000D03*
%TO.P,U1,48,VDD__2*%
%TO.N,+3.3V*%
X57100000Y-38250000D03*
D14*
%TO.P,U1,49,PA14*%
%TO.N,/SWCLK*%
X55250000Y-36400000D03*
%TO.P,U1,50,PA15*%
%TO.N,unconnected-(U1-PA15-Pad50)*%
X54750000Y-36400000D03*
%TO.P,U1,51,PC10*%
%TO.N,unconnected-(U1-PC10-Pad51)*%
X54250000Y-36400000D03*
%TO.P,U1,52,PC11*%
%TO.N,unconnected-(U1-PC11-Pad52)*%
X53750000Y-36400000D03*
%TO.P,U1,53,PC12*%
%TO.N,unconnected-(U1-PC12-Pad53)*%
X53250000Y-36400000D03*
%TO.P,U1,54,PD2*%
%TO.N,unconnected-(U1-PD2-Pad54)*%
X52750000Y-36400000D03*
%TO.P,U1,55,PB3*%
%TO.N,unconnected-(U1-PB3-Pad55)*%
X52250000Y-36400000D03*
%TO.P,U1,56,PB4*%
%TO.N,unconnected-(U1-PB4-Pad56)*%
X51750000Y-36400000D03*
%TO.P,U1,57,PB5*%
%TO.N,unconnected-(U1-PB5-Pad57)*%
X51250000Y-36400000D03*
%TO.P,U1,58,PB6*%
%TO.N,/SCL*%
X50750000Y-36400000D03*
%TO.P,U1,59,PB7*%
%TO.N,/SDA*%
X50250000Y-36400000D03*
%TO.P,U1,60,BOOT0*%
%TO.N,Net-(U1-BOOT0)*%
X49750000Y-36400000D03*
%TO.P,U1,61,PB8*%
%TO.N,unconnected-(U1-PB8-Pad61)*%
X49250000Y-36400000D03*
%TO.P,U1,62,PB9*%
%TO.N,unconnected-(U1-PB9-Pad62)*%
X48750000Y-36400000D03*
%TO.P,U1,63,VSS__3*%
%TO.N,GND*%
X48250000Y-36400000D03*
%TO.P,U1,64,VDD__3*%
%TO.N,+3.3V*%
X47750000Y-36400000D03*
%TD*%
D15*
%TO.P,C6,1*%
%TO.N,+3.3V*%
X42827800Y-38327800D03*
%TO.P,C6,2*%
%TO.N,GND*%
X42827800Y-36672200D03*
%TD*%
D16*
%TO.P,J1,1*%
%TO.N,+3.3V*%
X34500000Y-54620000D03*
%TO.P,J1,2*%
X31960000Y-54620000D03*
%TO.P,J1,3*%
%TO.N,GND*%
X34500000Y-52080000D03*
%TO.P,J1,4*%
X31960000Y-52080000D03*
%TO.P,J1,5*%
X34500000Y-49540000D03*
%TO.P,J1,6*%
X31960000Y-49540000D03*
%TO.P,J1,7*%
%TO.N,/SWDIO*%
X34500000Y-47000000D03*
%TO.P,J1,8*%
%TO.N,GND*%
X31960000Y-47000000D03*
%TO.P,J1,9*%
%TO.N,/SWCLK*%
X34500000Y-44460000D03*
%TO.P,J1,10*%
%TO.N,GND*%
X31960000Y-44460000D03*
%TO.P,J1,11*%
%TO.N,unconnected-(J1-Pad11)*%
X34500000Y-41920000D03*
%TO.P,J1,12*%
%TO.N,GND*%
X31960000Y-41920000D03*
%TO.P,J1,13*%
%TO.N,unconnected-(J1-Pad13)*%
X34500000Y-39380000D03*
%TO.P,J1,14*%
%TO.N,GND*%
X31960000Y-39380000D03*
%TO.P,J1,15*%
%TO.N,/NRST*%
X34500000Y-36840000D03*
%TO.P,J1,16*%
%TO.N,GND*%
X31960000Y-36840000D03*
%TO.P,J1,17*%
%TO.N,unconnected-(J1-Pad17)*%
X34500000Y-34300000D03*
%TO.P,J1,18*%
%TO.N,GND*%
X31960000Y-34300000D03*
%TO.P,J1,19*%
%TO.N,unconnected-(J1-Pad19)*%
X34500000Y-31760000D03*
%TO.P,J1,20*%
%TO.N,GND*%
X31960000Y-31760000D03*
%TD*%
D12*
%TO.P,C7,1*%
%TO.N,+3.3V*%
X52172200Y-50000000D03*
%TO.P,C7,2*%
%TO.N,GND*%
X53827800Y-50000000D03*
%TD*%
%TO.P,C4,1*%
%TO.N,+3.3V*%
X46672200Y-34500000D03*
%TO.P,C4,2*%
%TO.N,GND*%
X48327800Y-34500000D03*
%TD*%
%TO.P,C1,1*%
%TO.N,+3.3V*%
X49827800Y-50000000D03*
%TO.P,C1,2*%
%TO.N,GND*%
X48172200Y-50000000D03*
%TD*%
D17*
%TO.P,R1,1*%
%TO.N,GND*%
X41785000Y-29500000D03*
D18*
%TO.P,R1,2*%
%TO.N,Net-(U1-BOOT0)*%
X53215000Y-29500000D03*
%TD*%
D15*
%TO.P,C3,1*%
%TO.N,+3.3V*%
X60000000Y-38172200D03*
%TO.P,C3,2*%
%TO.N,GND*%
X60000000Y-39827800D03*
%TD*%
%TO.P,C5,1*%
%TO.N,+3.3V*%
X43500000Y-44827800D03*
%TO.P,C5,2*%
%TO.N,GND*%
X43500000Y-43172200D03*
%TD*%
D19*
%TO.P,SI1,1,VCC*%
%TO.N,+3.3V*%
X69000000Y-45000000D03*
%TO.P,SI1,2,TX*%
%TO.N,/MCU_RX*%
X69000000Y-47000000D03*
%TO.P,SI1,3,RX*%
%TO.N,/MCU_TX*%
X69000000Y-49000000D03*
%TO.P,SI1,4,GND*%
%TO.N,GND*%
X69000000Y-51000000D03*
%TD*%
D20*
%TO.P,U2,1,SCL/SPC*%
%TO.N,/SCL*%
X54762000Y-34250001D03*
%TO.P,U2,2,CS*%
%TO.N,+3.3V*%
X54762000Y-33750000D03*
%TO.P,U2,3,SDO/SA0*%
X54762000Y-33250000D03*
%TO.P,U2,4,SDA/SDI/SDO*%
%TO.N,/SDA*%
X54762000Y-32749999D03*
D21*
%TO.P,U2,5,NC*%
%TO.N,unconnected-(U2-NC-Pad5)*%
X54250000Y-32738000D03*
%TO.P,U2,6,GND*%
%TO.N,GND*%
X53750000Y-32738000D03*
D20*
%TO.P,U2,7,RES*%
X53238000Y-32749999D03*
%TO.P,U2,8,GND*%
X53238000Y-33250000D03*
%TO.P,U2,9,VDD*%
%TO.N,+3.3V*%
X53238000Y-33750000D03*
%TO.P,U2,10,VDDIO*%
X53238000Y-34250001D03*
D21*
%TO.P,U2,11,INT2*%
%TO.N,unconnected-(U2-INT2-Pad11)*%
X53750000Y-34262000D03*
%TO.P,U2,12,INT1*%
%TO.N,unconnected-(U2-INT1-Pad12)*%
X54250000Y-34262000D03*
%TD*%
D22*
%TO.N,+3.3V*%
X44000000Y-34500000D03*
X39000000Y-54000000D03*
X61500000Y-36000000D03*
%TO.N,GND*%
X49000000Y-33000000D03*
X39500000Y-33000000D03*
X51500000Y-34000000D03*
%TO.N,/SWDIO*%
X38500000Y-45000000D03*
X61000000Y-41500000D03*
%TO.N,/SWCLK*%
X58000000Y-34000000D03*
X38500000Y-43500000D03*
%TD*%
D23*
%TO.N,+3.3V*%
X55500000Y-33250000D02*
X55262000Y-33250000D01*
X52172200Y-50000000D02*
X52172200Y-49887978D01*
X53238000Y-33750000D02*
X53238000Y-34250001D01*
X45000000Y-38250000D02*
X45900000Y-38250000D01*
X54250000Y-48650000D02*
X54250000Y-47600000D01*
X48963900Y-51463900D02*
X50427800Y-50000000D01*
X48750000Y-48650000D02*
X48750000Y-47600000D01*
X48463900Y-51963900D02*
X48963900Y-51463900D01*
X39000000Y-48039822D02*
X42212022Y-44827800D01*
X50427800Y-50000000D02*
X52172200Y-50000000D01*
X47750000Y-36400000D02*
X45900000Y-38250000D01*
X42212022Y-44827800D02*
X43500000Y-44827800D01*
X53360178Y-48700000D02*
X54200000Y-48700000D01*
X58750000Y-33250000D02*
X55500000Y-33250000D01*
X57327800Y-50000000D02*
X57327800Y-49887978D01*
X57327800Y-49887978D02*
X55250000Y-47810178D01*
X43500000Y-44827800D02*
X44272200Y-44827800D01*
X47750000Y-36400000D02*
X46672200Y-35322200D01*
X49827800Y-50600000D02*
X49827800Y-50000000D01*
X57327800Y-50600000D02*
X57327800Y-50000000D01*
X44272200Y-44827800D02*
X44850000Y-44250000D01*
X49827800Y-50000000D02*
X49827800Y-49727800D01*
X34500000Y-54620000D02*
X38380000Y-54620000D01*
X61500000Y-36000000D02*
X58750000Y-33250000D01*
X31960000Y-54620000D02*
X34500000Y-54620000D01*
X55500000Y-33250000D02*
X54762000Y-33250000D01*
X46427800Y-54000000D02*
X48463900Y-51963900D01*
X42905600Y-38250000D02*
X45000000Y-38250000D01*
X59922200Y-38250000D02*
X60000000Y-38172200D01*
X52172200Y-49887978D02*
X53360178Y-48700000D01*
X46672200Y-35322200D02*
X46672200Y-34500000D01*
X54762000Y-33750000D02*
X53238000Y-33750000D01*
X38380000Y-54620000D02*
X39000000Y-54000000D01*
X44850000Y-44250000D02*
X45900000Y-44250000D01*
X55262000Y-33250000D02*
X54762000Y-33750000D01*
X42827800Y-38327800D02*
X42905600Y-38250000D01*
X48963900Y-51463900D02*
X56463900Y-51463900D01*
X48463900Y-51963900D02*
X49827800Y-50600000D01*
X44000000Y-34500000D02*
X46672200Y-34500000D01*
X39000000Y-54000000D02*
X39000000Y-48039822D01*
X39000000Y-54000000D02*
X46427800Y-54000000D01*
X55250000Y-47810178D02*
X55250000Y-47600000D01*
X61500000Y-36000000D02*
X61500000Y-36672200D01*
X57100000Y-38250000D02*
X59922200Y-38250000D01*
X56463900Y-51463900D02*
X57327800Y-50600000D01*
X54200000Y-48700000D02*
X54250000Y-48650000D01*
X49827800Y-49727800D02*
X48750000Y-48650000D01*
X61500000Y-36672200D02*
X60000000Y-38172200D01*
%TO.N,GND*%
X31960000Y-44460000D02*
X31960000Y-47000000D01*
X54000000Y-40800000D02*
X55150000Y-39650000D01*
X48327800Y-34387978D02*
X47739822Y-33800000D01*
X60000000Y-39827800D02*
X59527800Y-39827800D01*
X41785000Y-30000000D02*
X41285000Y-29500000D01*
X31960000Y-52080000D02*
X31960000Y-49540000D01*
X31960000Y-47000000D02*
X31960000Y-49540000D01*
X53238000Y-32749999D02*
X52250001Y-32749999D01*
X53827800Y-50000000D02*
X54750000Y-49077800D01*
X52000000Y-32500000D02*
X52000000Y-33000000D01*
X54750000Y-49077800D02*
X54750000Y-47600000D01*
X52250000Y-33250000D02*
X51500000Y-34000000D01*
X53238000Y-33250000D02*
X53238000Y-32749999D01*
X31960000Y-43000000D02*
X31960000Y-44460000D01*
X59527800Y-39827800D02*
X58450000Y-38750000D01*
X48250000Y-46000000D02*
X48250000Y-47600000D01*
X31960000Y-34300000D02*
X31960000Y-36840000D01*
X45900000Y-43750000D02*
X46950000Y-43750000D01*
X54200000Y-46000000D02*
X54750000Y-46550000D01*
X56050000Y-38750000D02*
X57100000Y-38750000D01*
X47739822Y-33800000D02*
X43851471Y-33800000D01*
X45900000Y-43750000D02*
X44584314Y-43750000D01*
X39500000Y-33000000D02*
X39500000Y-29500000D01*
X52250000Y-33250000D02*
X53238000Y-33250000D01*
X31960000Y-31760000D02*
X31960000Y-34300000D01*
X41285000Y-29500000D02*
X39500000Y-29500000D01*
X34500000Y-52080000D02*
X31960000Y-52080000D01*
X42827800Y-31042800D02*
X41785000Y-30000000D01*
X31960000Y-30040000D02*
X31960000Y-31760000D01*
X32500000Y-29500000D02*
X31960000Y-30040000D01*
X48250000Y-34577800D02*
X48250000Y-36400000D01*
X53750000Y-32250000D02*
X53000000Y-31500000D01*
X52000000Y-33000000D02*
X52250000Y-33250000D01*
X55150000Y-39650000D02*
X54900000Y-39900000D01*
X54900000Y-39900000D02*
X50700000Y-39900000D01*
X53000000Y-31500000D02*
X52000000Y-32500000D01*
X31960000Y-36840000D02*
X31960000Y-39380000D01*
X48327800Y-34500000D02*
X48327800Y-33672200D01*
X31960000Y-43000000D02*
X38151471Y-43000000D01*
X43227800Y-42900000D02*
X43500000Y-43172200D01*
X50700000Y-39900000D02*
X48250000Y-37450000D01*
X53238000Y-32749999D02*
X53738001Y-32749999D01*
X46950000Y-43750000D02*
X48250000Y-45050000D01*
X48327800Y-33672200D02*
X49000000Y-33000000D01*
X39500000Y-29500000D02*
X32500000Y-29500000D01*
X34500000Y-49540000D02*
X34500000Y-52080000D01*
X38151471Y-43000000D02*
X38251471Y-42900000D01*
X31960000Y-41920000D02*
X31960000Y-43000000D01*
X69000000Y-51000000D02*
X69000000Y-51500000D01*
X44006514Y-43172200D02*
X43500000Y-43172200D01*
X54750000Y-46550000D02*
X54750000Y-47600000D01*
X31960000Y-49540000D02*
X34500000Y-49540000D01*
X54000000Y-46000000D02*
X54200000Y-46000000D01*
X31960000Y-31760000D02*
X31960000Y-30960000D01*
X54000000Y-46000000D02*
X54000000Y-40800000D01*
X58450000Y-38750000D02*
X57100000Y-38750000D01*
X52250001Y-32749999D02*
X52000000Y-33000000D01*
X42827800Y-34823671D02*
X42827800Y-36672200D01*
X31960000Y-39380000D02*
X31960000Y-41920000D01*
X44584314Y-43750000D02*
X44006514Y-43172200D01*
X48250000Y-49922200D02*
X48250000Y-47600000D01*
X53738001Y-32749999D02*
X53750000Y-32738000D01*
X48327800Y-34500000D02*
X48250000Y-34577800D01*
X48327800Y-34500000D02*
X48327800Y-34387978D01*
X38251471Y-42900000D02*
X43227800Y-42900000D01*
X43851471Y-33800000D02*
X42827800Y-34823671D01*
X55150000Y-39650000D02*
X56050000Y-38750000D01*
X48172200Y-50000000D02*
X48250000Y-49922200D01*
X55672200Y-50000000D02*
X54750000Y-49077800D01*
X42827800Y-36672200D02*
X42827800Y-31042800D01*
X48250000Y-45050000D02*
X48250000Y-46000000D01*
X48250000Y-46000000D02*
X54000000Y-46000000D01*
X53750000Y-32738000D02*
X53750000Y-32250000D01*
X48250000Y-37450000D02*
X48250000Y-36400000D01*
%TO.N,/SWDIO*%
X34500000Y-47000000D02*
X36500000Y-45000000D01*
X61000000Y-41500000D02*
X60400000Y-41500000D01*
X60400000Y-41500000D02*
X58150000Y-39250000D01*
X36500000Y-45000000D02*
X38500000Y-45000000D01*
X58150000Y-39250000D02*
X57100000Y-39250000D01*
%TO.N,/SWCLK*%
X55600000Y-36400000D02*
X55250000Y-36400000D01*
X34500000Y-44460000D02*
X37540000Y-44460000D01*
X37540000Y-44460000D02*
X38500000Y-43500000D01*
X58000000Y-34000000D02*
X55600000Y-36400000D01*
%TO.N,/NRST*%
X38910000Y-41250000D02*
X45900000Y-41250000D01*
X34500000Y-36840000D02*
X38910000Y-41250000D01*
%TO.N,Net-(U1-BOOT0)*%
X49750000Y-36400000D02*
X49750000Y-33465000D01*
X49750000Y-33465000D02*
X53215000Y-30000000D01*
%TO.N,/SDA*%
X53165686Y-31100000D02*
X52680686Y-31100000D01*
X52680686Y-31100000D02*
X50250000Y-33530686D01*
X53878700Y-31500000D02*
X53565686Y-31500000D01*
X53565686Y-31500000D02*
X53165686Y-31100000D01*
X50250000Y-33530686D02*
X50250000Y-36400000D01*
X54762000Y-32383300D02*
X53878700Y-31500000D01*
X54762000Y-32749999D02*
X54762000Y-32383300D01*
%TO.N,/MCU_TX*%
X69000000Y-49000000D02*
X66000000Y-49000000D01*
X58250000Y-41250000D02*
X57100000Y-41250000D01*
X66000000Y-49000000D02*
X58250000Y-41250000D01*
%TO.N,/SCL*%
X51362000Y-34738000D02*
X50750000Y-35350000D01*
X50750000Y-35350000D02*
X50750000Y-36400000D01*
X54762000Y-34738000D02*
X51362000Y-34738000D01*
X54762000Y-34250001D02*
X54762000Y-34738000D01*
%TO.N,/MCU_RX*%
X69000000Y-47000000D02*
X64500000Y-42500000D01*
X60834314Y-42500000D02*
X59084314Y-40750000D01*
X59084314Y-40750000D02*
X57100000Y-40750000D01*
X64500000Y-42500000D02*
X60834314Y-42500000D01*
%TD*%
M02*
