%TF.GenerationSoftware,KiCad,Pcbnew,8.0.3*%
%TF.CreationDate,2024-11-24T17:28:35-05:00*%
%TF.ProjectId,MH24BN0001_hw,4d483234-424e-4303-9030-315f68772e6b,rev?*%
%TF.SameCoordinates,Original*%
%TF.FileFunction,Soldermask,Top*%
%TF.FilePolarity,Negative*%
%FSLAX46Y46*%
G04 Gerber Fmt 4.6, Leading zero omitted, Abs format (unit mm)*
G04 Created by KiCad (PCBNEW 8.0.3) date 2024-11-24 17:28:35*
%MOMM*%
%LPD*%
G01*
G04 APERTURE LIST*
G04 Aperture macros list*
%AMRoundRect*
0 Rectangle with rounded corners*
0 $1 Rounding radius*
0 $2 $3 $4 $5 $6 $7 $8 $9 X,Y pos of 4 corners*
0 Add a 4 corners polygon primitive as box body*
4,1,4,$2,$3,$4,$5,$6,$7,$8,$9,$2,$3,0*
0 Add four circle primitives for the rounded corners*
1,1,$1+$1,$2,$3*
1,1,$1+$1,$4,$5*
1,1,$1+$1,$6,$7*
1,1,$1+$1,$8,$9*
0 Add four rect primitives between the rounded corners*
20,1,$1+$1,$2,$3,$4,$5,0*
20,1,$1+$1,$4,$5,$6,$7,0*
20,1,$1+$1,$6,$7,$8,$9,0*
20,1,$1+$1,$8,$9,$2,$3,0*%
G04 Aperture macros list end*
%ADD10R,0.655600X0.800000*%
%ADD11RoundRect,0.102000X-0.800000X-0.150000X0.800000X-0.150000X0.800000X0.150000X-0.800000X0.150000X0*%
%ADD12RoundRect,0.102000X-0.150000X-0.800000X0.150000X-0.800000X0.150000X0.800000X-0.150000X0.800000X0*%
%ADD13R,0.800000X0.655600*%
%ADD14C,1.734000*%
%ADD15R,1.397000X1.397000*%
%ADD16C,1.397000*%
%ADD17C,1.524000*%
%ADD18R,0.279400X0.254000*%
%ADD19R,0.254000X0.279400*%
G04 APERTURE END LIST*
D10*
%TO.C,C2*%
X57327800Y-50000000D03*
X55672200Y-50000000D03*
%TD*%
D11*
%TO.C,U1*%
X45900000Y-38250000D03*
X45900000Y-38750000D03*
X45900000Y-39250000D03*
X45900000Y-39750000D03*
X45900000Y-40250000D03*
X45900000Y-40750000D03*
X45900000Y-41250000D03*
X45900000Y-41750000D03*
X45900000Y-42250000D03*
X45900000Y-42750000D03*
X45900000Y-43250000D03*
X45900000Y-43750000D03*
X45900000Y-44250000D03*
X45900000Y-44750000D03*
X45900000Y-45250000D03*
X45900000Y-45750000D03*
D12*
X47750000Y-47600000D03*
X48250000Y-47600000D03*
X48750000Y-47600000D03*
X49250000Y-47600000D03*
X49750000Y-47600000D03*
X50250000Y-47600000D03*
X50750000Y-47600000D03*
X51250000Y-47600000D03*
X51750000Y-47600000D03*
X52250000Y-47600000D03*
X52750000Y-47600000D03*
X53250000Y-47600000D03*
X53750000Y-47600000D03*
X54250000Y-47600000D03*
X54750000Y-47600000D03*
X55250000Y-47600000D03*
D11*
X57100000Y-45750000D03*
X57100000Y-45250000D03*
X57100000Y-44750000D03*
X57100000Y-44250000D03*
X57100000Y-43750000D03*
X57100000Y-43250000D03*
X57100000Y-42750000D03*
X57100000Y-42250000D03*
X57100000Y-41750000D03*
X57100000Y-41250000D03*
X57100000Y-40750000D03*
X57100000Y-40250000D03*
X57100000Y-39750000D03*
X57100000Y-39250000D03*
X57100000Y-38750000D03*
X57100000Y-38250000D03*
D12*
X55250000Y-36400000D03*
X54750000Y-36400000D03*
X54250000Y-36400000D03*
X53750000Y-36400000D03*
X53250000Y-36400000D03*
X52750000Y-36400000D03*
X52250000Y-36400000D03*
X51750000Y-36400000D03*
X51250000Y-36400000D03*
X50750000Y-36400000D03*
X50250000Y-36400000D03*
X49750000Y-36400000D03*
X49250000Y-36400000D03*
X48750000Y-36400000D03*
X48250000Y-36400000D03*
X47750000Y-36400000D03*
%TD*%
D13*
%TO.C,C6*%
X42827800Y-38327800D03*
X42827800Y-36672200D03*
%TD*%
D14*
%TO.C,J1*%
X34500000Y-54620000D03*
X31960000Y-54620000D03*
X34500000Y-52080000D03*
X31960000Y-52080000D03*
X34500000Y-49540000D03*
X31960000Y-49540000D03*
X34500000Y-47000000D03*
X31960000Y-47000000D03*
X34500000Y-44460000D03*
X31960000Y-44460000D03*
X34500000Y-41920000D03*
X31960000Y-41920000D03*
X34500000Y-39380000D03*
X31960000Y-39380000D03*
X34500000Y-36840000D03*
X31960000Y-36840000D03*
X34500000Y-34300000D03*
X31960000Y-34300000D03*
X34500000Y-31760000D03*
X31960000Y-31760000D03*
%TD*%
D10*
%TO.C,C7*%
X52172200Y-50000000D03*
X53827800Y-50000000D03*
%TD*%
%TO.C,C4*%
X46672200Y-34500000D03*
X48327800Y-34500000D03*
%TD*%
%TO.C,C1*%
X49827800Y-50000000D03*
X48172200Y-50000000D03*
%TD*%
D15*
%TO.C,R1*%
X41785000Y-29500000D03*
D16*
X53215000Y-29500000D03*
%TD*%
D13*
%TO.C,C3*%
X60000000Y-38172200D03*
X60000000Y-39827800D03*
%TD*%
%TO.C,C5*%
X43500000Y-44827800D03*
X43500000Y-43172200D03*
%TD*%
D17*
%TO.C,SI1*%
X69000000Y-45000000D03*
X69000000Y-47000000D03*
X69000000Y-49000000D03*
X69000000Y-51000000D03*
%TD*%
D18*
%TO.C,U2*%
X54762000Y-34250001D03*
X54762000Y-33750000D03*
X54762000Y-33250000D03*
X54762000Y-32749999D03*
D19*
X54250000Y-32738000D03*
X53750000Y-32738000D03*
D18*
X53238000Y-32749999D03*
X53238000Y-33250000D03*
X53238000Y-33750000D03*
X53238000Y-34250001D03*
D19*
X53750000Y-34262000D03*
X54250000Y-34262000D03*
%TD*%
M02*
