M48
; DRILL file {KiCad 8.0.3} date 2024-11-24T17:28:36-0500
; FORMAT={-:-/ absolute / metric / decimal}
; #@! TF.CreationDate,2024-11-24T17:28:36-05:00
; #@! TF.GenerationSoftware,Kicad,Pcbnew,8.0.3
; #@! TF.FileFunction,Plated,1,2,PTH
FMAT,2
METRIC
; #@! TA.AperFunction,Plated,PTH,ViaDrill
T1C0.300
; #@! TA.AperFunction,Plated,PTH,ComponentDrill
T2C0.762
; #@! TA.AperFunction,Plated,PTH,ComponentDrill
T3C0.889
; #@! TA.AperFunction,Plated,PTH,ComponentDrill
T4C1.300
%
G90
G05
T1
X38.5Y-43.5
X38.5Y-45.0
X39.0Y-54.0
X39.5Y-33.0
X44.0Y-34.5
X49.0Y-33.0
X51.5Y-34.0
X58.0Y-34.0
X61.0Y-41.5
X61.5Y-36.0
T2
X69.0Y-45.0
X69.0Y-47.0
X69.0Y-49.0
X69.0Y-51.0
T3
X41.785Y-29.5
X53.215Y-29.5
T4
X31.96Y-31.76
X31.96Y-34.3
X31.96Y-36.84
X31.96Y-39.38
X31.96Y-41.92
X31.96Y-44.46
X31.96Y-47.0
X31.96Y-49.54
X31.96Y-52.08
X31.96Y-54.62
X34.5Y-31.76
X34.5Y-34.3
X34.5Y-36.84
X34.5Y-39.38
X34.5Y-41.92
X34.5Y-44.46
X34.5Y-47.0
X34.5Y-49.54
X34.5Y-52.08
X34.5Y-54.62
M30
