%TF.GenerationSoftware,KiCad,Pcbnew,8.0.3*%
%TF.CreationDate,2024-11-24T17:28:37-05:00*%
%TF.ProjectId,MH24BN0001_hw,4d483234-424e-4303-9030-315f68772e6b,rev?*%
%TF.SameCoordinates,Original*%
%TF.FileFunction,Drillmap*%
%TF.FilePolarity,Positive*%
%FSLAX45Y45*%
G04 Gerber Fmt 4.5, Leading zero omitted, Abs format (unit mm)*
G04 Created by KiCad (PCBNEW 8.0.3) date 2024-11-24 17:28:37*
%MOMM*%
%LPD*%
G01*
G04 APERTURE LIST*
%ADD10C,0.050000*%
%ADD11C,0.200000*%
%ADD12C,0.100000*%
%ADD13C,0.130000*%
G04 APERTURE END LIST*
D10*
X2550000Y-2550000D02*
X7250000Y-2550000D01*
X7250000Y-6000000D01*
X2550000Y-6000000D01*
X2550000Y-2550000D01*
D11*
D12*
X3835000Y-4335000D02*
X3865000Y-4365000D01*
X3865000Y-4335000D02*
X3835000Y-4365000D01*
X3835000Y-4485000D02*
X3865000Y-4515000D01*
X3865000Y-4485000D02*
X3835000Y-4515000D01*
X3885000Y-5385000D02*
X3915000Y-5415000D01*
X3915000Y-5385000D02*
X3885000Y-5415000D01*
X3935000Y-3285000D02*
X3965000Y-3315000D01*
X3965000Y-3285000D02*
X3935000Y-3315000D01*
X4385000Y-3435000D02*
X4415000Y-3465000D01*
X4415000Y-3435000D02*
X4385000Y-3465000D01*
X4885000Y-3285000D02*
X4915000Y-3315000D01*
X4915000Y-3285000D02*
X4885000Y-3315000D01*
X5135000Y-3385000D02*
X5165000Y-3415000D01*
X5165000Y-3385000D02*
X5135000Y-3415000D01*
X5785000Y-3385000D02*
X5815000Y-3415000D01*
X5815000Y-3385000D02*
X5785000Y-3415000D01*
X6085000Y-4135000D02*
X6115000Y-4165000D01*
X6115000Y-4135000D02*
X6085000Y-4165000D01*
X6135000Y-3585000D02*
X6165000Y-3615000D01*
X6165000Y-3585000D02*
X6135000Y-3615000D01*
X6938100Y-4500000D02*
G75*
G02*
X6861900Y-4500000I-38100J0D01*
G01*
X6861900Y-4500000D02*
G75*
G02*
X6938100Y-4500000I38100J0D01*
G01*
X6938100Y-4700000D02*
G75*
G02*
X6861900Y-4700000I-38100J0D01*
G01*
X6861900Y-4700000D02*
G75*
G02*
X6938100Y-4700000I38100J0D01*
G01*
X6938100Y-4900000D02*
G75*
G02*
X6861900Y-4900000I-38100J0D01*
G01*
X6861900Y-4900000D02*
G75*
G02*
X6938100Y-4900000I38100J0D01*
G01*
X6938100Y-5100000D02*
G75*
G02*
X6861900Y-5100000I-38100J0D01*
G01*
X6861900Y-5100000D02*
G75*
G02*
X6938100Y-5100000I38100J0D01*
G01*
X4178500Y-2905550D02*
X4178500Y-2994450D01*
X4134050Y-2950000D02*
X4222950Y-2950000D01*
X5321500Y-2905550D02*
X5321500Y-2994450D01*
X5277050Y-2950000D02*
X5365950Y-2950000D01*
D13*
X3241962Y-3221962D02*
X3241962Y-3130038D01*
X3150038Y-3130038D01*
X3150038Y-3221962D01*
X3241962Y-3221962D01*
X3241962Y-3475962D02*
X3241962Y-3384038D01*
X3150038Y-3384038D01*
X3150038Y-3475962D01*
X3241962Y-3475962D01*
X3241962Y-3729962D02*
X3241962Y-3638038D01*
X3150038Y-3638038D01*
X3150038Y-3729962D01*
X3241962Y-3729962D01*
X3241962Y-3983962D02*
X3241962Y-3892038D01*
X3150038Y-3892038D01*
X3150038Y-3983962D01*
X3241962Y-3983962D01*
X3241962Y-4237962D02*
X3241962Y-4146038D01*
X3150038Y-4146038D01*
X3150038Y-4237962D01*
X3241962Y-4237962D01*
X3241962Y-4491962D02*
X3241962Y-4400038D01*
X3150038Y-4400038D01*
X3150038Y-4491962D01*
X3241962Y-4491962D01*
X3241962Y-4745962D02*
X3241962Y-4654038D01*
X3150038Y-4654038D01*
X3150038Y-4745962D01*
X3241962Y-4745962D01*
X3241962Y-4999962D02*
X3241962Y-4908038D01*
X3150038Y-4908038D01*
X3150038Y-4999962D01*
X3241962Y-4999962D01*
X3241962Y-5253962D02*
X3241962Y-5162038D01*
X3150038Y-5162038D01*
X3150038Y-5253962D01*
X3241962Y-5253962D01*
X3241962Y-5507962D02*
X3241962Y-5416038D01*
X3150038Y-5416038D01*
X3150038Y-5507962D01*
X3241962Y-5507962D01*
X3495962Y-3221962D02*
X3495962Y-3130038D01*
X3404038Y-3130038D01*
X3404038Y-3221962D01*
X3495962Y-3221962D01*
X3495962Y-3475962D02*
X3495962Y-3384038D01*
X3404038Y-3384038D01*
X3404038Y-3475962D01*
X3495962Y-3475962D01*
X3495962Y-3729962D02*
X3495962Y-3638038D01*
X3404038Y-3638038D01*
X3404038Y-3729962D01*
X3495962Y-3729962D01*
X3495962Y-3983962D02*
X3495962Y-3892038D01*
X3404038Y-3892038D01*
X3404038Y-3983962D01*
X3495962Y-3983962D01*
X3495962Y-4237962D02*
X3495962Y-4146038D01*
X3404038Y-4146038D01*
X3404038Y-4237962D01*
X3495962Y-4237962D01*
X3495962Y-4491962D02*
X3495962Y-4400038D01*
X3404038Y-4400038D01*
X3404038Y-4491962D01*
X3495962Y-4491962D01*
X3495962Y-4745962D02*
X3495962Y-4654038D01*
X3404038Y-4654038D01*
X3404038Y-4745962D01*
X3495962Y-4745962D01*
X3495962Y-4999962D02*
X3495962Y-4908038D01*
X3404038Y-4908038D01*
X3404038Y-4999962D01*
X3495962Y-4999962D01*
X3495962Y-5253962D02*
X3495962Y-5162038D01*
X3404038Y-5162038D01*
X3404038Y-5253962D01*
X3495962Y-5253962D01*
X3495962Y-5507962D02*
X3495962Y-5416038D01*
X3404038Y-5416038D01*
X3404038Y-5507962D01*
X3495962Y-5507962D01*
D11*
X2808277Y-6313984D02*
X2808277Y-6113984D01*
X2808277Y-6113984D02*
X2855896Y-6113984D01*
X2855896Y-6113984D02*
X2884467Y-6123508D01*
X2884467Y-6123508D02*
X2903515Y-6142555D01*
X2903515Y-6142555D02*
X2913039Y-6161603D01*
X2913039Y-6161603D02*
X2922562Y-6199698D01*
X2922562Y-6199698D02*
X2922562Y-6228269D01*
X2922562Y-6228269D02*
X2913039Y-6266365D01*
X2913039Y-6266365D02*
X2903515Y-6285412D01*
X2903515Y-6285412D02*
X2884467Y-6304460D01*
X2884467Y-6304460D02*
X2855896Y-6313984D01*
X2855896Y-6313984D02*
X2808277Y-6313984D01*
X3008277Y-6313984D02*
X3008277Y-6180650D01*
X3008277Y-6218746D02*
X3017801Y-6199698D01*
X3017801Y-6199698D02*
X3027324Y-6190174D01*
X3027324Y-6190174D02*
X3046372Y-6180650D01*
X3046372Y-6180650D02*
X3065420Y-6180650D01*
X3132086Y-6313984D02*
X3132086Y-6180650D01*
X3132086Y-6113984D02*
X3122562Y-6123508D01*
X3122562Y-6123508D02*
X3132086Y-6133031D01*
X3132086Y-6133031D02*
X3141610Y-6123508D01*
X3141610Y-6123508D02*
X3132086Y-6113984D01*
X3132086Y-6113984D02*
X3132086Y-6133031D01*
X3255896Y-6313984D02*
X3236848Y-6304460D01*
X3236848Y-6304460D02*
X3227324Y-6285412D01*
X3227324Y-6285412D02*
X3227324Y-6113984D01*
X3360658Y-6313984D02*
X3341610Y-6304460D01*
X3341610Y-6304460D02*
X3332086Y-6285412D01*
X3332086Y-6285412D02*
X3332086Y-6113984D01*
X3589229Y-6313984D02*
X3589229Y-6113984D01*
X3589229Y-6113984D02*
X3655896Y-6256841D01*
X3655896Y-6256841D02*
X3722562Y-6113984D01*
X3722562Y-6113984D02*
X3722562Y-6313984D01*
X3903515Y-6313984D02*
X3903515Y-6209222D01*
X3903515Y-6209222D02*
X3893991Y-6190174D01*
X3893991Y-6190174D02*
X3874943Y-6180650D01*
X3874943Y-6180650D02*
X3836848Y-6180650D01*
X3836848Y-6180650D02*
X3817801Y-6190174D01*
X3903515Y-6304460D02*
X3884467Y-6313984D01*
X3884467Y-6313984D02*
X3836848Y-6313984D01*
X3836848Y-6313984D02*
X3817801Y-6304460D01*
X3817801Y-6304460D02*
X3808277Y-6285412D01*
X3808277Y-6285412D02*
X3808277Y-6266365D01*
X3808277Y-6266365D02*
X3817801Y-6247317D01*
X3817801Y-6247317D02*
X3836848Y-6237793D01*
X3836848Y-6237793D02*
X3884467Y-6237793D01*
X3884467Y-6237793D02*
X3903515Y-6228269D01*
X3998753Y-6180650D02*
X3998753Y-6380650D01*
X3998753Y-6190174D02*
X4017801Y-6180650D01*
X4017801Y-6180650D02*
X4055896Y-6180650D01*
X4055896Y-6180650D02*
X4074943Y-6190174D01*
X4074943Y-6190174D02*
X4084467Y-6199698D01*
X4084467Y-6199698D02*
X4093991Y-6218746D01*
X4093991Y-6218746D02*
X4093991Y-6275888D01*
X4093991Y-6275888D02*
X4084467Y-6294936D01*
X4084467Y-6294936D02*
X4074943Y-6304460D01*
X4074943Y-6304460D02*
X4055896Y-6313984D01*
X4055896Y-6313984D02*
X4017801Y-6313984D01*
X4017801Y-6313984D02*
X3998753Y-6304460D01*
X4179705Y-6294936D02*
X4189229Y-6304460D01*
X4189229Y-6304460D02*
X4179705Y-6313984D01*
X4179705Y-6313984D02*
X4170182Y-6304460D01*
X4170182Y-6304460D02*
X4179705Y-6294936D01*
X4179705Y-6294936D02*
X4179705Y-6313984D01*
X4179705Y-6190174D02*
X4189229Y-6199698D01*
X4189229Y-6199698D02*
X4179705Y-6209222D01*
X4179705Y-6209222D02*
X4170182Y-6199698D01*
X4170182Y-6199698D02*
X4179705Y-6190174D01*
X4179705Y-6190174D02*
X4179705Y-6209222D01*
D12*
X2517500Y-6627500D02*
X2547500Y-6657500D01*
X2547500Y-6627500D02*
X2517500Y-6657500D01*
D11*
X2846372Y-6533984D02*
X2865420Y-6533984D01*
X2865420Y-6533984D02*
X2884467Y-6543508D01*
X2884467Y-6543508D02*
X2893991Y-6553031D01*
X2893991Y-6553031D02*
X2903515Y-6572079D01*
X2903515Y-6572079D02*
X2913039Y-6610174D01*
X2913039Y-6610174D02*
X2913039Y-6657793D01*
X2913039Y-6657793D02*
X2903515Y-6695888D01*
X2903515Y-6695888D02*
X2893991Y-6714936D01*
X2893991Y-6714936D02*
X2884467Y-6724460D01*
X2884467Y-6724460D02*
X2865420Y-6733984D01*
X2865420Y-6733984D02*
X2846372Y-6733984D01*
X2846372Y-6733984D02*
X2827324Y-6724460D01*
X2827324Y-6724460D02*
X2817801Y-6714936D01*
X2817801Y-6714936D02*
X2808277Y-6695888D01*
X2808277Y-6695888D02*
X2798753Y-6657793D01*
X2798753Y-6657793D02*
X2798753Y-6610174D01*
X2798753Y-6610174D02*
X2808277Y-6572079D01*
X2808277Y-6572079D02*
X2817801Y-6553031D01*
X2817801Y-6553031D02*
X2827324Y-6543508D01*
X2827324Y-6543508D02*
X2846372Y-6533984D01*
X2998753Y-6714936D02*
X3008277Y-6724460D01*
X3008277Y-6724460D02*
X2998753Y-6733984D01*
X2998753Y-6733984D02*
X2989229Y-6724460D01*
X2989229Y-6724460D02*
X2998753Y-6714936D01*
X2998753Y-6714936D02*
X2998753Y-6733984D01*
X3074943Y-6533984D02*
X3198753Y-6533984D01*
X3198753Y-6533984D02*
X3132086Y-6610174D01*
X3132086Y-6610174D02*
X3160658Y-6610174D01*
X3160658Y-6610174D02*
X3179705Y-6619698D01*
X3179705Y-6619698D02*
X3189229Y-6629222D01*
X3189229Y-6629222D02*
X3198753Y-6648269D01*
X3198753Y-6648269D02*
X3198753Y-6695888D01*
X3198753Y-6695888D02*
X3189229Y-6714936D01*
X3189229Y-6714936D02*
X3179705Y-6724460D01*
X3179705Y-6724460D02*
X3160658Y-6733984D01*
X3160658Y-6733984D02*
X3103515Y-6733984D01*
X3103515Y-6733984D02*
X3084467Y-6724460D01*
X3084467Y-6724460D02*
X3074943Y-6714936D01*
X3322562Y-6533984D02*
X3341610Y-6533984D01*
X3341610Y-6533984D02*
X3360658Y-6543508D01*
X3360658Y-6543508D02*
X3370182Y-6553031D01*
X3370182Y-6553031D02*
X3379705Y-6572079D01*
X3379705Y-6572079D02*
X3389229Y-6610174D01*
X3389229Y-6610174D02*
X3389229Y-6657793D01*
X3389229Y-6657793D02*
X3379705Y-6695888D01*
X3379705Y-6695888D02*
X3370182Y-6714936D01*
X3370182Y-6714936D02*
X3360658Y-6724460D01*
X3360658Y-6724460D02*
X3341610Y-6733984D01*
X3341610Y-6733984D02*
X3322562Y-6733984D01*
X3322562Y-6733984D02*
X3303515Y-6724460D01*
X3303515Y-6724460D02*
X3293991Y-6714936D01*
X3293991Y-6714936D02*
X3284467Y-6695888D01*
X3284467Y-6695888D02*
X3274943Y-6657793D01*
X3274943Y-6657793D02*
X3274943Y-6610174D01*
X3274943Y-6610174D02*
X3284467Y-6572079D01*
X3284467Y-6572079D02*
X3293991Y-6553031D01*
X3293991Y-6553031D02*
X3303515Y-6543508D01*
X3303515Y-6543508D02*
X3322562Y-6533984D01*
X3513039Y-6533984D02*
X3532086Y-6533984D01*
X3532086Y-6533984D02*
X3551134Y-6543508D01*
X3551134Y-6543508D02*
X3560658Y-6553031D01*
X3560658Y-6553031D02*
X3570182Y-6572079D01*
X3570182Y-6572079D02*
X3579705Y-6610174D01*
X3579705Y-6610174D02*
X3579705Y-6657793D01*
X3579705Y-6657793D02*
X3570182Y-6695888D01*
X3570182Y-6695888D02*
X3560658Y-6714936D01*
X3560658Y-6714936D02*
X3551134Y-6724460D01*
X3551134Y-6724460D02*
X3532086Y-6733984D01*
X3532086Y-6733984D02*
X3513039Y-6733984D01*
X3513039Y-6733984D02*
X3493991Y-6724460D01*
X3493991Y-6724460D02*
X3484467Y-6714936D01*
X3484467Y-6714936D02*
X3474943Y-6695888D01*
X3474943Y-6695888D02*
X3465420Y-6657793D01*
X3465420Y-6657793D02*
X3465420Y-6610174D01*
X3465420Y-6610174D02*
X3474943Y-6572079D01*
X3474943Y-6572079D02*
X3484467Y-6553031D01*
X3484467Y-6553031D02*
X3493991Y-6543508D01*
X3493991Y-6543508D02*
X3513039Y-6533984D01*
X3665420Y-6733984D02*
X3665420Y-6600650D01*
X3665420Y-6619698D02*
X3674943Y-6610174D01*
X3674943Y-6610174D02*
X3693991Y-6600650D01*
X3693991Y-6600650D02*
X3722563Y-6600650D01*
X3722563Y-6600650D02*
X3741610Y-6610174D01*
X3741610Y-6610174D02*
X3751134Y-6629222D01*
X3751134Y-6629222D02*
X3751134Y-6733984D01*
X3751134Y-6629222D02*
X3760658Y-6610174D01*
X3760658Y-6610174D02*
X3779705Y-6600650D01*
X3779705Y-6600650D02*
X3808277Y-6600650D01*
X3808277Y-6600650D02*
X3827324Y-6610174D01*
X3827324Y-6610174D02*
X3836848Y-6629222D01*
X3836848Y-6629222D02*
X3836848Y-6733984D01*
X3932086Y-6733984D02*
X3932086Y-6600650D01*
X3932086Y-6619698D02*
X3941610Y-6610174D01*
X3941610Y-6610174D02*
X3960658Y-6600650D01*
X3960658Y-6600650D02*
X3989229Y-6600650D01*
X3989229Y-6600650D02*
X4008277Y-6610174D01*
X4008277Y-6610174D02*
X4017801Y-6629222D01*
X4017801Y-6629222D02*
X4017801Y-6733984D01*
X4017801Y-6629222D02*
X4027324Y-6610174D01*
X4027324Y-6610174D02*
X4046372Y-6600650D01*
X4046372Y-6600650D02*
X4074943Y-6600650D01*
X4074943Y-6600650D02*
X4093991Y-6610174D01*
X4093991Y-6610174D02*
X4103515Y-6629222D01*
X4103515Y-6629222D02*
X4103515Y-6733984D01*
X4493991Y-6524460D02*
X4322563Y-6781603D01*
X4751134Y-6533984D02*
X4770182Y-6533984D01*
X4770182Y-6533984D02*
X4789229Y-6543508D01*
X4789229Y-6543508D02*
X4798753Y-6553031D01*
X4798753Y-6553031D02*
X4808277Y-6572079D01*
X4808277Y-6572079D02*
X4817801Y-6610174D01*
X4817801Y-6610174D02*
X4817801Y-6657793D01*
X4817801Y-6657793D02*
X4808277Y-6695888D01*
X4808277Y-6695888D02*
X4798753Y-6714936D01*
X4798753Y-6714936D02*
X4789229Y-6724460D01*
X4789229Y-6724460D02*
X4770182Y-6733984D01*
X4770182Y-6733984D02*
X4751134Y-6733984D01*
X4751134Y-6733984D02*
X4732087Y-6724460D01*
X4732087Y-6724460D02*
X4722563Y-6714936D01*
X4722563Y-6714936D02*
X4713039Y-6695888D01*
X4713039Y-6695888D02*
X4703515Y-6657793D01*
X4703515Y-6657793D02*
X4703515Y-6610174D01*
X4703515Y-6610174D02*
X4713039Y-6572079D01*
X4713039Y-6572079D02*
X4722563Y-6553031D01*
X4722563Y-6553031D02*
X4732087Y-6543508D01*
X4732087Y-6543508D02*
X4751134Y-6533984D01*
X4903515Y-6714936D02*
X4913039Y-6724460D01*
X4913039Y-6724460D02*
X4903515Y-6733984D01*
X4903515Y-6733984D02*
X4893991Y-6724460D01*
X4893991Y-6724460D02*
X4903515Y-6714936D01*
X4903515Y-6714936D02*
X4903515Y-6733984D01*
X5036848Y-6533984D02*
X5055896Y-6533984D01*
X5055896Y-6533984D02*
X5074944Y-6543508D01*
X5074944Y-6543508D02*
X5084468Y-6553031D01*
X5084468Y-6553031D02*
X5093991Y-6572079D01*
X5093991Y-6572079D02*
X5103515Y-6610174D01*
X5103515Y-6610174D02*
X5103515Y-6657793D01*
X5103515Y-6657793D02*
X5093991Y-6695888D01*
X5093991Y-6695888D02*
X5084468Y-6714936D01*
X5084468Y-6714936D02*
X5074944Y-6724460D01*
X5074944Y-6724460D02*
X5055896Y-6733984D01*
X5055896Y-6733984D02*
X5036848Y-6733984D01*
X5036848Y-6733984D02*
X5017801Y-6724460D01*
X5017801Y-6724460D02*
X5008277Y-6714936D01*
X5008277Y-6714936D02*
X4998753Y-6695888D01*
X4998753Y-6695888D02*
X4989229Y-6657793D01*
X4989229Y-6657793D02*
X4989229Y-6610174D01*
X4989229Y-6610174D02*
X4998753Y-6572079D01*
X4998753Y-6572079D02*
X5008277Y-6553031D01*
X5008277Y-6553031D02*
X5017801Y-6543508D01*
X5017801Y-6543508D02*
X5036848Y-6533984D01*
X5293991Y-6733984D02*
X5179706Y-6733984D01*
X5236848Y-6733984D02*
X5236848Y-6533984D01*
X5236848Y-6533984D02*
X5217801Y-6562555D01*
X5217801Y-6562555D02*
X5198753Y-6581603D01*
X5198753Y-6581603D02*
X5179706Y-6591127D01*
X5484468Y-6733984D02*
X5370182Y-6733984D01*
X5427325Y-6733984D02*
X5427325Y-6533984D01*
X5427325Y-6533984D02*
X5408277Y-6562555D01*
X5408277Y-6562555D02*
X5389229Y-6581603D01*
X5389229Y-6581603D02*
X5370182Y-6591127D01*
X5598753Y-6619698D02*
X5579706Y-6610174D01*
X5579706Y-6610174D02*
X5570182Y-6600650D01*
X5570182Y-6600650D02*
X5560658Y-6581603D01*
X5560658Y-6581603D02*
X5560658Y-6572079D01*
X5560658Y-6572079D02*
X5570182Y-6553031D01*
X5570182Y-6553031D02*
X5579706Y-6543508D01*
X5579706Y-6543508D02*
X5598753Y-6533984D01*
X5598753Y-6533984D02*
X5636848Y-6533984D01*
X5636848Y-6533984D02*
X5655896Y-6543508D01*
X5655896Y-6543508D02*
X5665420Y-6553031D01*
X5665420Y-6553031D02*
X5674944Y-6572079D01*
X5674944Y-6572079D02*
X5674944Y-6581603D01*
X5674944Y-6581603D02*
X5665420Y-6600650D01*
X5665420Y-6600650D02*
X5655896Y-6610174D01*
X5655896Y-6610174D02*
X5636848Y-6619698D01*
X5636848Y-6619698D02*
X5598753Y-6619698D01*
X5598753Y-6619698D02*
X5579706Y-6629222D01*
X5579706Y-6629222D02*
X5570182Y-6638746D01*
X5570182Y-6638746D02*
X5560658Y-6657793D01*
X5560658Y-6657793D02*
X5560658Y-6695888D01*
X5560658Y-6695888D02*
X5570182Y-6714936D01*
X5570182Y-6714936D02*
X5579706Y-6724460D01*
X5579706Y-6724460D02*
X5598753Y-6733984D01*
X5598753Y-6733984D02*
X5636848Y-6733984D01*
X5636848Y-6733984D02*
X5655896Y-6724460D01*
X5655896Y-6724460D02*
X5665420Y-6714936D01*
X5665420Y-6714936D02*
X5674944Y-6695888D01*
X5674944Y-6695888D02*
X5674944Y-6657793D01*
X5674944Y-6657793D02*
X5665420Y-6638746D01*
X5665420Y-6638746D02*
X5655896Y-6629222D01*
X5655896Y-6629222D02*
X5636848Y-6619698D01*
X5751134Y-6533984D02*
X5751134Y-6572079D01*
X5827325Y-6533984D02*
X5827325Y-6572079D01*
X6122563Y-6810174D02*
X6113039Y-6800650D01*
X6113039Y-6800650D02*
X6093991Y-6772079D01*
X6093991Y-6772079D02*
X6084468Y-6753031D01*
X6084468Y-6753031D02*
X6074944Y-6724460D01*
X6074944Y-6724460D02*
X6065420Y-6676841D01*
X6065420Y-6676841D02*
X6065420Y-6638746D01*
X6065420Y-6638746D02*
X6074944Y-6591127D01*
X6074944Y-6591127D02*
X6084468Y-6562555D01*
X6084468Y-6562555D02*
X6093991Y-6543508D01*
X6093991Y-6543508D02*
X6113039Y-6514936D01*
X6113039Y-6514936D02*
X6122563Y-6505412D01*
X6303515Y-6733984D02*
X6189229Y-6733984D01*
X6246372Y-6733984D02*
X6246372Y-6533984D01*
X6246372Y-6533984D02*
X6227325Y-6562555D01*
X6227325Y-6562555D02*
X6208277Y-6581603D01*
X6208277Y-6581603D02*
X6189229Y-6591127D01*
X6427325Y-6533984D02*
X6446372Y-6533984D01*
X6446372Y-6533984D02*
X6465420Y-6543508D01*
X6465420Y-6543508D02*
X6474944Y-6553031D01*
X6474944Y-6553031D02*
X6484468Y-6572079D01*
X6484468Y-6572079D02*
X6493991Y-6610174D01*
X6493991Y-6610174D02*
X6493991Y-6657793D01*
X6493991Y-6657793D02*
X6484468Y-6695888D01*
X6484468Y-6695888D02*
X6474944Y-6714936D01*
X6474944Y-6714936D02*
X6465420Y-6724460D01*
X6465420Y-6724460D02*
X6446372Y-6733984D01*
X6446372Y-6733984D02*
X6427325Y-6733984D01*
X6427325Y-6733984D02*
X6408277Y-6724460D01*
X6408277Y-6724460D02*
X6398753Y-6714936D01*
X6398753Y-6714936D02*
X6389229Y-6695888D01*
X6389229Y-6695888D02*
X6379706Y-6657793D01*
X6379706Y-6657793D02*
X6379706Y-6610174D01*
X6379706Y-6610174D02*
X6389229Y-6572079D01*
X6389229Y-6572079D02*
X6398753Y-6553031D01*
X6398753Y-6553031D02*
X6408277Y-6543508D01*
X6408277Y-6543508D02*
X6427325Y-6533984D01*
X6732087Y-6733984D02*
X6732087Y-6533984D01*
X6817801Y-6733984D02*
X6817801Y-6629222D01*
X6817801Y-6629222D02*
X6808277Y-6610174D01*
X6808277Y-6610174D02*
X6789230Y-6600650D01*
X6789230Y-6600650D02*
X6760658Y-6600650D01*
X6760658Y-6600650D02*
X6741610Y-6610174D01*
X6741610Y-6610174D02*
X6732087Y-6619698D01*
X6941610Y-6733984D02*
X6922563Y-6724460D01*
X6922563Y-6724460D02*
X6913039Y-6714936D01*
X6913039Y-6714936D02*
X6903515Y-6695888D01*
X6903515Y-6695888D02*
X6903515Y-6638746D01*
X6903515Y-6638746D02*
X6913039Y-6619698D01*
X6913039Y-6619698D02*
X6922563Y-6610174D01*
X6922563Y-6610174D02*
X6941610Y-6600650D01*
X6941610Y-6600650D02*
X6970182Y-6600650D01*
X6970182Y-6600650D02*
X6989230Y-6610174D01*
X6989230Y-6610174D02*
X6998753Y-6619698D01*
X6998753Y-6619698D02*
X7008277Y-6638746D01*
X7008277Y-6638746D02*
X7008277Y-6695888D01*
X7008277Y-6695888D02*
X6998753Y-6714936D01*
X6998753Y-6714936D02*
X6989230Y-6724460D01*
X6989230Y-6724460D02*
X6970182Y-6733984D01*
X6970182Y-6733984D02*
X6941610Y-6733984D01*
X7122563Y-6733984D02*
X7103515Y-6724460D01*
X7103515Y-6724460D02*
X7093991Y-6705412D01*
X7093991Y-6705412D02*
X7093991Y-6533984D01*
X7274944Y-6724460D02*
X7255896Y-6733984D01*
X7255896Y-6733984D02*
X7217801Y-6733984D01*
X7217801Y-6733984D02*
X7198753Y-6724460D01*
X7198753Y-6724460D02*
X7189230Y-6705412D01*
X7189230Y-6705412D02*
X7189230Y-6629222D01*
X7189230Y-6629222D02*
X7198753Y-6610174D01*
X7198753Y-6610174D02*
X7217801Y-6600650D01*
X7217801Y-6600650D02*
X7255896Y-6600650D01*
X7255896Y-6600650D02*
X7274944Y-6610174D01*
X7274944Y-6610174D02*
X7284468Y-6629222D01*
X7284468Y-6629222D02*
X7284468Y-6648269D01*
X7284468Y-6648269D02*
X7189230Y-6667317D01*
X7360658Y-6724460D02*
X7379706Y-6733984D01*
X7379706Y-6733984D02*
X7417801Y-6733984D01*
X7417801Y-6733984D02*
X7436849Y-6724460D01*
X7436849Y-6724460D02*
X7446372Y-6705412D01*
X7446372Y-6705412D02*
X7446372Y-6695888D01*
X7446372Y-6695888D02*
X7436849Y-6676841D01*
X7436849Y-6676841D02*
X7417801Y-6667317D01*
X7417801Y-6667317D02*
X7389230Y-6667317D01*
X7389230Y-6667317D02*
X7370182Y-6657793D01*
X7370182Y-6657793D02*
X7360658Y-6638746D01*
X7360658Y-6638746D02*
X7360658Y-6629222D01*
X7360658Y-6629222D02*
X7370182Y-6610174D01*
X7370182Y-6610174D02*
X7389230Y-6600650D01*
X7389230Y-6600650D02*
X7417801Y-6600650D01*
X7417801Y-6600650D02*
X7436849Y-6610174D01*
X7513039Y-6810174D02*
X7522563Y-6800650D01*
X7522563Y-6800650D02*
X7541611Y-6772079D01*
X7541611Y-6772079D02*
X7551134Y-6753031D01*
X7551134Y-6753031D02*
X7560658Y-6724460D01*
X7560658Y-6724460D02*
X7570182Y-6676841D01*
X7570182Y-6676841D02*
X7570182Y-6638746D01*
X7570182Y-6638746D02*
X7560658Y-6591127D01*
X7560658Y-6591127D02*
X7551134Y-6562555D01*
X7551134Y-6562555D02*
X7541611Y-6543508D01*
X7541611Y-6543508D02*
X7522563Y-6514936D01*
X7522563Y-6514936D02*
X7513039Y-6505412D01*
D12*
X2547500Y-6906500D02*
G75*
G02*
X2471300Y-6906500I-38100J0D01*
G01*
X2471300Y-6906500D02*
G75*
G02*
X2547500Y-6906500I38100J0D01*
G01*
D11*
X2846372Y-6797984D02*
X2865420Y-6797984D01*
X2865420Y-6797984D02*
X2884467Y-6807508D01*
X2884467Y-6807508D02*
X2893991Y-6817031D01*
X2893991Y-6817031D02*
X2903515Y-6836079D01*
X2903515Y-6836079D02*
X2913039Y-6874174D01*
X2913039Y-6874174D02*
X2913039Y-6921793D01*
X2913039Y-6921793D02*
X2903515Y-6959888D01*
X2903515Y-6959888D02*
X2893991Y-6978936D01*
X2893991Y-6978936D02*
X2884467Y-6988460D01*
X2884467Y-6988460D02*
X2865420Y-6997984D01*
X2865420Y-6997984D02*
X2846372Y-6997984D01*
X2846372Y-6997984D02*
X2827324Y-6988460D01*
X2827324Y-6988460D02*
X2817801Y-6978936D01*
X2817801Y-6978936D02*
X2808277Y-6959888D01*
X2808277Y-6959888D02*
X2798753Y-6921793D01*
X2798753Y-6921793D02*
X2798753Y-6874174D01*
X2798753Y-6874174D02*
X2808277Y-6836079D01*
X2808277Y-6836079D02*
X2817801Y-6817031D01*
X2817801Y-6817031D02*
X2827324Y-6807508D01*
X2827324Y-6807508D02*
X2846372Y-6797984D01*
X2998753Y-6978936D02*
X3008277Y-6988460D01*
X3008277Y-6988460D02*
X2998753Y-6997984D01*
X2998753Y-6997984D02*
X2989229Y-6988460D01*
X2989229Y-6988460D02*
X2998753Y-6978936D01*
X2998753Y-6978936D02*
X2998753Y-6997984D01*
X3074943Y-6797984D02*
X3208277Y-6797984D01*
X3208277Y-6797984D02*
X3122562Y-6997984D01*
X3370182Y-6797984D02*
X3332086Y-6797984D01*
X3332086Y-6797984D02*
X3313039Y-6807508D01*
X3313039Y-6807508D02*
X3303515Y-6817031D01*
X3303515Y-6817031D02*
X3284467Y-6845603D01*
X3284467Y-6845603D02*
X3274943Y-6883698D01*
X3274943Y-6883698D02*
X3274943Y-6959888D01*
X3274943Y-6959888D02*
X3284467Y-6978936D01*
X3284467Y-6978936D02*
X3293991Y-6988460D01*
X3293991Y-6988460D02*
X3313039Y-6997984D01*
X3313039Y-6997984D02*
X3351134Y-6997984D01*
X3351134Y-6997984D02*
X3370182Y-6988460D01*
X3370182Y-6988460D02*
X3379705Y-6978936D01*
X3379705Y-6978936D02*
X3389229Y-6959888D01*
X3389229Y-6959888D02*
X3389229Y-6912269D01*
X3389229Y-6912269D02*
X3379705Y-6893222D01*
X3379705Y-6893222D02*
X3370182Y-6883698D01*
X3370182Y-6883698D02*
X3351134Y-6874174D01*
X3351134Y-6874174D02*
X3313039Y-6874174D01*
X3313039Y-6874174D02*
X3293991Y-6883698D01*
X3293991Y-6883698D02*
X3284467Y-6893222D01*
X3284467Y-6893222D02*
X3274943Y-6912269D01*
X3465420Y-6817031D02*
X3474943Y-6807508D01*
X3474943Y-6807508D02*
X3493991Y-6797984D01*
X3493991Y-6797984D02*
X3541610Y-6797984D01*
X3541610Y-6797984D02*
X3560658Y-6807508D01*
X3560658Y-6807508D02*
X3570182Y-6817031D01*
X3570182Y-6817031D02*
X3579705Y-6836079D01*
X3579705Y-6836079D02*
X3579705Y-6855127D01*
X3579705Y-6855127D02*
X3570182Y-6883698D01*
X3570182Y-6883698D02*
X3455896Y-6997984D01*
X3455896Y-6997984D02*
X3579705Y-6997984D01*
X3665420Y-6997984D02*
X3665420Y-6864650D01*
X3665420Y-6883698D02*
X3674943Y-6874174D01*
X3674943Y-6874174D02*
X3693991Y-6864650D01*
X3693991Y-6864650D02*
X3722563Y-6864650D01*
X3722563Y-6864650D02*
X3741610Y-6874174D01*
X3741610Y-6874174D02*
X3751134Y-6893222D01*
X3751134Y-6893222D02*
X3751134Y-6997984D01*
X3751134Y-6893222D02*
X3760658Y-6874174D01*
X3760658Y-6874174D02*
X3779705Y-6864650D01*
X3779705Y-6864650D02*
X3808277Y-6864650D01*
X3808277Y-6864650D02*
X3827324Y-6874174D01*
X3827324Y-6874174D02*
X3836848Y-6893222D01*
X3836848Y-6893222D02*
X3836848Y-6997984D01*
X3932086Y-6997984D02*
X3932086Y-6864650D01*
X3932086Y-6883698D02*
X3941610Y-6874174D01*
X3941610Y-6874174D02*
X3960658Y-6864650D01*
X3960658Y-6864650D02*
X3989229Y-6864650D01*
X3989229Y-6864650D02*
X4008277Y-6874174D01*
X4008277Y-6874174D02*
X4017801Y-6893222D01*
X4017801Y-6893222D02*
X4017801Y-6997984D01*
X4017801Y-6893222D02*
X4027324Y-6874174D01*
X4027324Y-6874174D02*
X4046372Y-6864650D01*
X4046372Y-6864650D02*
X4074943Y-6864650D01*
X4074943Y-6864650D02*
X4093991Y-6874174D01*
X4093991Y-6874174D02*
X4103515Y-6893222D01*
X4103515Y-6893222D02*
X4103515Y-6997984D01*
X4493991Y-6788460D02*
X4322563Y-7045603D01*
X4751134Y-6797984D02*
X4770182Y-6797984D01*
X4770182Y-6797984D02*
X4789229Y-6807508D01*
X4789229Y-6807508D02*
X4798753Y-6817031D01*
X4798753Y-6817031D02*
X4808277Y-6836079D01*
X4808277Y-6836079D02*
X4817801Y-6874174D01*
X4817801Y-6874174D02*
X4817801Y-6921793D01*
X4817801Y-6921793D02*
X4808277Y-6959888D01*
X4808277Y-6959888D02*
X4798753Y-6978936D01*
X4798753Y-6978936D02*
X4789229Y-6988460D01*
X4789229Y-6988460D02*
X4770182Y-6997984D01*
X4770182Y-6997984D02*
X4751134Y-6997984D01*
X4751134Y-6997984D02*
X4732087Y-6988460D01*
X4732087Y-6988460D02*
X4722563Y-6978936D01*
X4722563Y-6978936D02*
X4713039Y-6959888D01*
X4713039Y-6959888D02*
X4703515Y-6921793D01*
X4703515Y-6921793D02*
X4703515Y-6874174D01*
X4703515Y-6874174D02*
X4713039Y-6836079D01*
X4713039Y-6836079D02*
X4722563Y-6817031D01*
X4722563Y-6817031D02*
X4732087Y-6807508D01*
X4732087Y-6807508D02*
X4751134Y-6797984D01*
X4903515Y-6978936D02*
X4913039Y-6988460D01*
X4913039Y-6988460D02*
X4903515Y-6997984D01*
X4903515Y-6997984D02*
X4893991Y-6988460D01*
X4893991Y-6988460D02*
X4903515Y-6978936D01*
X4903515Y-6978936D02*
X4903515Y-6997984D01*
X5036848Y-6797984D02*
X5055896Y-6797984D01*
X5055896Y-6797984D02*
X5074944Y-6807508D01*
X5074944Y-6807508D02*
X5084468Y-6817031D01*
X5084468Y-6817031D02*
X5093991Y-6836079D01*
X5093991Y-6836079D02*
X5103515Y-6874174D01*
X5103515Y-6874174D02*
X5103515Y-6921793D01*
X5103515Y-6921793D02*
X5093991Y-6959888D01*
X5093991Y-6959888D02*
X5084468Y-6978936D01*
X5084468Y-6978936D02*
X5074944Y-6988460D01*
X5074944Y-6988460D02*
X5055896Y-6997984D01*
X5055896Y-6997984D02*
X5036848Y-6997984D01*
X5036848Y-6997984D02*
X5017801Y-6988460D01*
X5017801Y-6988460D02*
X5008277Y-6978936D01*
X5008277Y-6978936D02*
X4998753Y-6959888D01*
X4998753Y-6959888D02*
X4989229Y-6921793D01*
X4989229Y-6921793D02*
X4989229Y-6874174D01*
X4989229Y-6874174D02*
X4998753Y-6836079D01*
X4998753Y-6836079D02*
X5008277Y-6817031D01*
X5008277Y-6817031D02*
X5017801Y-6807508D01*
X5017801Y-6807508D02*
X5036848Y-6797984D01*
X5170182Y-6797984D02*
X5293991Y-6797984D01*
X5293991Y-6797984D02*
X5227325Y-6874174D01*
X5227325Y-6874174D02*
X5255896Y-6874174D01*
X5255896Y-6874174D02*
X5274944Y-6883698D01*
X5274944Y-6883698D02*
X5284468Y-6893222D01*
X5284468Y-6893222D02*
X5293991Y-6912269D01*
X5293991Y-6912269D02*
X5293991Y-6959888D01*
X5293991Y-6959888D02*
X5284468Y-6978936D01*
X5284468Y-6978936D02*
X5274944Y-6988460D01*
X5274944Y-6988460D02*
X5255896Y-6997984D01*
X5255896Y-6997984D02*
X5198753Y-6997984D01*
X5198753Y-6997984D02*
X5179706Y-6988460D01*
X5179706Y-6988460D02*
X5170182Y-6978936D01*
X5417801Y-6797984D02*
X5436849Y-6797984D01*
X5436849Y-6797984D02*
X5455896Y-6807508D01*
X5455896Y-6807508D02*
X5465420Y-6817031D01*
X5465420Y-6817031D02*
X5474944Y-6836079D01*
X5474944Y-6836079D02*
X5484468Y-6874174D01*
X5484468Y-6874174D02*
X5484468Y-6921793D01*
X5484468Y-6921793D02*
X5474944Y-6959888D01*
X5474944Y-6959888D02*
X5465420Y-6978936D01*
X5465420Y-6978936D02*
X5455896Y-6988460D01*
X5455896Y-6988460D02*
X5436849Y-6997984D01*
X5436849Y-6997984D02*
X5417801Y-6997984D01*
X5417801Y-6997984D02*
X5398753Y-6988460D01*
X5398753Y-6988460D02*
X5389229Y-6978936D01*
X5389229Y-6978936D02*
X5379706Y-6959888D01*
X5379706Y-6959888D02*
X5370182Y-6921793D01*
X5370182Y-6921793D02*
X5370182Y-6874174D01*
X5370182Y-6874174D02*
X5379706Y-6836079D01*
X5379706Y-6836079D02*
X5389229Y-6817031D01*
X5389229Y-6817031D02*
X5398753Y-6807508D01*
X5398753Y-6807508D02*
X5417801Y-6797984D01*
X5608277Y-6797984D02*
X5627325Y-6797984D01*
X5627325Y-6797984D02*
X5646372Y-6807508D01*
X5646372Y-6807508D02*
X5655896Y-6817031D01*
X5655896Y-6817031D02*
X5665420Y-6836079D01*
X5665420Y-6836079D02*
X5674944Y-6874174D01*
X5674944Y-6874174D02*
X5674944Y-6921793D01*
X5674944Y-6921793D02*
X5665420Y-6959888D01*
X5665420Y-6959888D02*
X5655896Y-6978936D01*
X5655896Y-6978936D02*
X5646372Y-6988460D01*
X5646372Y-6988460D02*
X5627325Y-6997984D01*
X5627325Y-6997984D02*
X5608277Y-6997984D01*
X5608277Y-6997984D02*
X5589229Y-6988460D01*
X5589229Y-6988460D02*
X5579706Y-6978936D01*
X5579706Y-6978936D02*
X5570182Y-6959888D01*
X5570182Y-6959888D02*
X5560658Y-6921793D01*
X5560658Y-6921793D02*
X5560658Y-6874174D01*
X5560658Y-6874174D02*
X5570182Y-6836079D01*
X5570182Y-6836079D02*
X5579706Y-6817031D01*
X5579706Y-6817031D02*
X5589229Y-6807508D01*
X5589229Y-6807508D02*
X5608277Y-6797984D01*
X5751134Y-6797984D02*
X5751134Y-6836079D01*
X5827325Y-6797984D02*
X5827325Y-6836079D01*
X6122563Y-7074174D02*
X6113039Y-7064650D01*
X6113039Y-7064650D02*
X6093991Y-7036079D01*
X6093991Y-7036079D02*
X6084468Y-7017031D01*
X6084468Y-7017031D02*
X6074944Y-6988460D01*
X6074944Y-6988460D02*
X6065420Y-6940841D01*
X6065420Y-6940841D02*
X6065420Y-6902746D01*
X6065420Y-6902746D02*
X6074944Y-6855127D01*
X6074944Y-6855127D02*
X6084468Y-6826555D01*
X6084468Y-6826555D02*
X6093991Y-6807508D01*
X6093991Y-6807508D02*
X6113039Y-6778936D01*
X6113039Y-6778936D02*
X6122563Y-6769412D01*
X6284468Y-6864650D02*
X6284468Y-6997984D01*
X6236848Y-6788460D02*
X6189229Y-6931317D01*
X6189229Y-6931317D02*
X6313039Y-6931317D01*
X6541610Y-6997984D02*
X6541610Y-6797984D01*
X6627325Y-6997984D02*
X6627325Y-6893222D01*
X6627325Y-6893222D02*
X6617801Y-6874174D01*
X6617801Y-6874174D02*
X6598753Y-6864650D01*
X6598753Y-6864650D02*
X6570182Y-6864650D01*
X6570182Y-6864650D02*
X6551134Y-6874174D01*
X6551134Y-6874174D02*
X6541610Y-6883698D01*
X6751134Y-6997984D02*
X6732087Y-6988460D01*
X6732087Y-6988460D02*
X6722563Y-6978936D01*
X6722563Y-6978936D02*
X6713039Y-6959888D01*
X6713039Y-6959888D02*
X6713039Y-6902746D01*
X6713039Y-6902746D02*
X6722563Y-6883698D01*
X6722563Y-6883698D02*
X6732087Y-6874174D01*
X6732087Y-6874174D02*
X6751134Y-6864650D01*
X6751134Y-6864650D02*
X6779706Y-6864650D01*
X6779706Y-6864650D02*
X6798753Y-6874174D01*
X6798753Y-6874174D02*
X6808277Y-6883698D01*
X6808277Y-6883698D02*
X6817801Y-6902746D01*
X6817801Y-6902746D02*
X6817801Y-6959888D01*
X6817801Y-6959888D02*
X6808277Y-6978936D01*
X6808277Y-6978936D02*
X6798753Y-6988460D01*
X6798753Y-6988460D02*
X6779706Y-6997984D01*
X6779706Y-6997984D02*
X6751134Y-6997984D01*
X6932087Y-6997984D02*
X6913039Y-6988460D01*
X6913039Y-6988460D02*
X6903515Y-6969412D01*
X6903515Y-6969412D02*
X6903515Y-6797984D01*
X7084468Y-6988460D02*
X7065420Y-6997984D01*
X7065420Y-6997984D02*
X7027325Y-6997984D01*
X7027325Y-6997984D02*
X7008277Y-6988460D01*
X7008277Y-6988460D02*
X6998753Y-6969412D01*
X6998753Y-6969412D02*
X6998753Y-6893222D01*
X6998753Y-6893222D02*
X7008277Y-6874174D01*
X7008277Y-6874174D02*
X7027325Y-6864650D01*
X7027325Y-6864650D02*
X7065420Y-6864650D01*
X7065420Y-6864650D02*
X7084468Y-6874174D01*
X7084468Y-6874174D02*
X7093991Y-6893222D01*
X7093991Y-6893222D02*
X7093991Y-6912269D01*
X7093991Y-6912269D02*
X6998753Y-6931317D01*
X7170182Y-6988460D02*
X7189230Y-6997984D01*
X7189230Y-6997984D02*
X7227325Y-6997984D01*
X7227325Y-6997984D02*
X7246372Y-6988460D01*
X7246372Y-6988460D02*
X7255896Y-6969412D01*
X7255896Y-6969412D02*
X7255896Y-6959888D01*
X7255896Y-6959888D02*
X7246372Y-6940841D01*
X7246372Y-6940841D02*
X7227325Y-6931317D01*
X7227325Y-6931317D02*
X7198753Y-6931317D01*
X7198753Y-6931317D02*
X7179706Y-6921793D01*
X7179706Y-6921793D02*
X7170182Y-6902746D01*
X7170182Y-6902746D02*
X7170182Y-6893222D01*
X7170182Y-6893222D02*
X7179706Y-6874174D01*
X7179706Y-6874174D02*
X7198753Y-6864650D01*
X7198753Y-6864650D02*
X7227325Y-6864650D01*
X7227325Y-6864650D02*
X7246372Y-6874174D01*
X7322563Y-7074174D02*
X7332087Y-7064650D01*
X7332087Y-7064650D02*
X7351134Y-7036079D01*
X7351134Y-7036079D02*
X7360658Y-7017031D01*
X7360658Y-7017031D02*
X7370182Y-6988460D01*
X7370182Y-6988460D02*
X7379706Y-6940841D01*
X7379706Y-6940841D02*
X7379706Y-6902746D01*
X7379706Y-6902746D02*
X7370182Y-6855127D01*
X7370182Y-6855127D02*
X7360658Y-6826555D01*
X7360658Y-6826555D02*
X7351134Y-6807508D01*
X7351134Y-6807508D02*
X7332087Y-6778936D01*
X7332087Y-6778936D02*
X7322563Y-6769412D01*
D12*
X2503050Y-7126050D02*
X2503050Y-7214950D01*
X2458600Y-7170500D02*
X2547500Y-7170500D01*
D11*
X2846372Y-7061984D02*
X2865420Y-7061984D01*
X2865420Y-7061984D02*
X2884467Y-7071508D01*
X2884467Y-7071508D02*
X2893991Y-7081031D01*
X2893991Y-7081031D02*
X2903515Y-7100079D01*
X2903515Y-7100079D02*
X2913039Y-7138174D01*
X2913039Y-7138174D02*
X2913039Y-7185793D01*
X2913039Y-7185793D02*
X2903515Y-7223888D01*
X2903515Y-7223888D02*
X2893991Y-7242936D01*
X2893991Y-7242936D02*
X2884467Y-7252460D01*
X2884467Y-7252460D02*
X2865420Y-7261984D01*
X2865420Y-7261984D02*
X2846372Y-7261984D01*
X2846372Y-7261984D02*
X2827324Y-7252460D01*
X2827324Y-7252460D02*
X2817801Y-7242936D01*
X2817801Y-7242936D02*
X2808277Y-7223888D01*
X2808277Y-7223888D02*
X2798753Y-7185793D01*
X2798753Y-7185793D02*
X2798753Y-7138174D01*
X2798753Y-7138174D02*
X2808277Y-7100079D01*
X2808277Y-7100079D02*
X2817801Y-7081031D01*
X2817801Y-7081031D02*
X2827324Y-7071508D01*
X2827324Y-7071508D02*
X2846372Y-7061984D01*
X2998753Y-7242936D02*
X3008277Y-7252460D01*
X3008277Y-7252460D02*
X2998753Y-7261984D01*
X2998753Y-7261984D02*
X2989229Y-7252460D01*
X2989229Y-7252460D02*
X2998753Y-7242936D01*
X2998753Y-7242936D02*
X2998753Y-7261984D01*
X3122562Y-7147698D02*
X3103515Y-7138174D01*
X3103515Y-7138174D02*
X3093991Y-7128650D01*
X3093991Y-7128650D02*
X3084467Y-7109603D01*
X3084467Y-7109603D02*
X3084467Y-7100079D01*
X3084467Y-7100079D02*
X3093991Y-7081031D01*
X3093991Y-7081031D02*
X3103515Y-7071508D01*
X3103515Y-7071508D02*
X3122562Y-7061984D01*
X3122562Y-7061984D02*
X3160658Y-7061984D01*
X3160658Y-7061984D02*
X3179705Y-7071508D01*
X3179705Y-7071508D02*
X3189229Y-7081031D01*
X3189229Y-7081031D02*
X3198753Y-7100079D01*
X3198753Y-7100079D02*
X3198753Y-7109603D01*
X3198753Y-7109603D02*
X3189229Y-7128650D01*
X3189229Y-7128650D02*
X3179705Y-7138174D01*
X3179705Y-7138174D02*
X3160658Y-7147698D01*
X3160658Y-7147698D02*
X3122562Y-7147698D01*
X3122562Y-7147698D02*
X3103515Y-7157222D01*
X3103515Y-7157222D02*
X3093991Y-7166746D01*
X3093991Y-7166746D02*
X3084467Y-7185793D01*
X3084467Y-7185793D02*
X3084467Y-7223888D01*
X3084467Y-7223888D02*
X3093991Y-7242936D01*
X3093991Y-7242936D02*
X3103515Y-7252460D01*
X3103515Y-7252460D02*
X3122562Y-7261984D01*
X3122562Y-7261984D02*
X3160658Y-7261984D01*
X3160658Y-7261984D02*
X3179705Y-7252460D01*
X3179705Y-7252460D02*
X3189229Y-7242936D01*
X3189229Y-7242936D02*
X3198753Y-7223888D01*
X3198753Y-7223888D02*
X3198753Y-7185793D01*
X3198753Y-7185793D02*
X3189229Y-7166746D01*
X3189229Y-7166746D02*
X3179705Y-7157222D01*
X3179705Y-7157222D02*
X3160658Y-7147698D01*
X3313039Y-7147698D02*
X3293991Y-7138174D01*
X3293991Y-7138174D02*
X3284467Y-7128650D01*
X3284467Y-7128650D02*
X3274943Y-7109603D01*
X3274943Y-7109603D02*
X3274943Y-7100079D01*
X3274943Y-7100079D02*
X3284467Y-7081031D01*
X3284467Y-7081031D02*
X3293991Y-7071508D01*
X3293991Y-7071508D02*
X3313039Y-7061984D01*
X3313039Y-7061984D02*
X3351134Y-7061984D01*
X3351134Y-7061984D02*
X3370182Y-7071508D01*
X3370182Y-7071508D02*
X3379705Y-7081031D01*
X3379705Y-7081031D02*
X3389229Y-7100079D01*
X3389229Y-7100079D02*
X3389229Y-7109603D01*
X3389229Y-7109603D02*
X3379705Y-7128650D01*
X3379705Y-7128650D02*
X3370182Y-7138174D01*
X3370182Y-7138174D02*
X3351134Y-7147698D01*
X3351134Y-7147698D02*
X3313039Y-7147698D01*
X3313039Y-7147698D02*
X3293991Y-7157222D01*
X3293991Y-7157222D02*
X3284467Y-7166746D01*
X3284467Y-7166746D02*
X3274943Y-7185793D01*
X3274943Y-7185793D02*
X3274943Y-7223888D01*
X3274943Y-7223888D02*
X3284467Y-7242936D01*
X3284467Y-7242936D02*
X3293991Y-7252460D01*
X3293991Y-7252460D02*
X3313039Y-7261984D01*
X3313039Y-7261984D02*
X3351134Y-7261984D01*
X3351134Y-7261984D02*
X3370182Y-7252460D01*
X3370182Y-7252460D02*
X3379705Y-7242936D01*
X3379705Y-7242936D02*
X3389229Y-7223888D01*
X3389229Y-7223888D02*
X3389229Y-7185793D01*
X3389229Y-7185793D02*
X3379705Y-7166746D01*
X3379705Y-7166746D02*
X3370182Y-7157222D01*
X3370182Y-7157222D02*
X3351134Y-7147698D01*
X3484467Y-7261984D02*
X3522562Y-7261984D01*
X3522562Y-7261984D02*
X3541610Y-7252460D01*
X3541610Y-7252460D02*
X3551134Y-7242936D01*
X3551134Y-7242936D02*
X3570182Y-7214365D01*
X3570182Y-7214365D02*
X3579705Y-7176269D01*
X3579705Y-7176269D02*
X3579705Y-7100079D01*
X3579705Y-7100079D02*
X3570182Y-7081031D01*
X3570182Y-7081031D02*
X3560658Y-7071508D01*
X3560658Y-7071508D02*
X3541610Y-7061984D01*
X3541610Y-7061984D02*
X3503515Y-7061984D01*
X3503515Y-7061984D02*
X3484467Y-7071508D01*
X3484467Y-7071508D02*
X3474943Y-7081031D01*
X3474943Y-7081031D02*
X3465420Y-7100079D01*
X3465420Y-7100079D02*
X3465420Y-7147698D01*
X3465420Y-7147698D02*
X3474943Y-7166746D01*
X3474943Y-7166746D02*
X3484467Y-7176269D01*
X3484467Y-7176269D02*
X3503515Y-7185793D01*
X3503515Y-7185793D02*
X3541610Y-7185793D01*
X3541610Y-7185793D02*
X3560658Y-7176269D01*
X3560658Y-7176269D02*
X3570182Y-7166746D01*
X3570182Y-7166746D02*
X3579705Y-7147698D01*
X3665420Y-7261984D02*
X3665420Y-7128650D01*
X3665420Y-7147698D02*
X3674943Y-7138174D01*
X3674943Y-7138174D02*
X3693991Y-7128650D01*
X3693991Y-7128650D02*
X3722563Y-7128650D01*
X3722563Y-7128650D02*
X3741610Y-7138174D01*
X3741610Y-7138174D02*
X3751134Y-7157222D01*
X3751134Y-7157222D02*
X3751134Y-7261984D01*
X3751134Y-7157222D02*
X3760658Y-7138174D01*
X3760658Y-7138174D02*
X3779705Y-7128650D01*
X3779705Y-7128650D02*
X3808277Y-7128650D01*
X3808277Y-7128650D02*
X3827324Y-7138174D01*
X3827324Y-7138174D02*
X3836848Y-7157222D01*
X3836848Y-7157222D02*
X3836848Y-7261984D01*
X3932086Y-7261984D02*
X3932086Y-7128650D01*
X3932086Y-7147698D02*
X3941610Y-7138174D01*
X3941610Y-7138174D02*
X3960658Y-7128650D01*
X3960658Y-7128650D02*
X3989229Y-7128650D01*
X3989229Y-7128650D02*
X4008277Y-7138174D01*
X4008277Y-7138174D02*
X4017801Y-7157222D01*
X4017801Y-7157222D02*
X4017801Y-7261984D01*
X4017801Y-7157222D02*
X4027324Y-7138174D01*
X4027324Y-7138174D02*
X4046372Y-7128650D01*
X4046372Y-7128650D02*
X4074943Y-7128650D01*
X4074943Y-7128650D02*
X4093991Y-7138174D01*
X4093991Y-7138174D02*
X4103515Y-7157222D01*
X4103515Y-7157222D02*
X4103515Y-7261984D01*
X4493991Y-7052460D02*
X4322563Y-7309603D01*
X4751134Y-7061984D02*
X4770182Y-7061984D01*
X4770182Y-7061984D02*
X4789229Y-7071508D01*
X4789229Y-7071508D02*
X4798753Y-7081031D01*
X4798753Y-7081031D02*
X4808277Y-7100079D01*
X4808277Y-7100079D02*
X4817801Y-7138174D01*
X4817801Y-7138174D02*
X4817801Y-7185793D01*
X4817801Y-7185793D02*
X4808277Y-7223888D01*
X4808277Y-7223888D02*
X4798753Y-7242936D01*
X4798753Y-7242936D02*
X4789229Y-7252460D01*
X4789229Y-7252460D02*
X4770182Y-7261984D01*
X4770182Y-7261984D02*
X4751134Y-7261984D01*
X4751134Y-7261984D02*
X4732087Y-7252460D01*
X4732087Y-7252460D02*
X4722563Y-7242936D01*
X4722563Y-7242936D02*
X4713039Y-7223888D01*
X4713039Y-7223888D02*
X4703515Y-7185793D01*
X4703515Y-7185793D02*
X4703515Y-7138174D01*
X4703515Y-7138174D02*
X4713039Y-7100079D01*
X4713039Y-7100079D02*
X4722563Y-7081031D01*
X4722563Y-7081031D02*
X4732087Y-7071508D01*
X4732087Y-7071508D02*
X4751134Y-7061984D01*
X4903515Y-7242936D02*
X4913039Y-7252460D01*
X4913039Y-7252460D02*
X4903515Y-7261984D01*
X4903515Y-7261984D02*
X4893991Y-7252460D01*
X4893991Y-7252460D02*
X4903515Y-7242936D01*
X4903515Y-7242936D02*
X4903515Y-7261984D01*
X5036848Y-7061984D02*
X5055896Y-7061984D01*
X5055896Y-7061984D02*
X5074944Y-7071508D01*
X5074944Y-7071508D02*
X5084468Y-7081031D01*
X5084468Y-7081031D02*
X5093991Y-7100079D01*
X5093991Y-7100079D02*
X5103515Y-7138174D01*
X5103515Y-7138174D02*
X5103515Y-7185793D01*
X5103515Y-7185793D02*
X5093991Y-7223888D01*
X5093991Y-7223888D02*
X5084468Y-7242936D01*
X5084468Y-7242936D02*
X5074944Y-7252460D01*
X5074944Y-7252460D02*
X5055896Y-7261984D01*
X5055896Y-7261984D02*
X5036848Y-7261984D01*
X5036848Y-7261984D02*
X5017801Y-7252460D01*
X5017801Y-7252460D02*
X5008277Y-7242936D01*
X5008277Y-7242936D02*
X4998753Y-7223888D01*
X4998753Y-7223888D02*
X4989229Y-7185793D01*
X4989229Y-7185793D02*
X4989229Y-7138174D01*
X4989229Y-7138174D02*
X4998753Y-7100079D01*
X4998753Y-7100079D02*
X5008277Y-7081031D01*
X5008277Y-7081031D02*
X5017801Y-7071508D01*
X5017801Y-7071508D02*
X5036848Y-7061984D01*
X5170182Y-7061984D02*
X5293991Y-7061984D01*
X5293991Y-7061984D02*
X5227325Y-7138174D01*
X5227325Y-7138174D02*
X5255896Y-7138174D01*
X5255896Y-7138174D02*
X5274944Y-7147698D01*
X5274944Y-7147698D02*
X5284468Y-7157222D01*
X5284468Y-7157222D02*
X5293991Y-7176269D01*
X5293991Y-7176269D02*
X5293991Y-7223888D01*
X5293991Y-7223888D02*
X5284468Y-7242936D01*
X5284468Y-7242936D02*
X5274944Y-7252460D01*
X5274944Y-7252460D02*
X5255896Y-7261984D01*
X5255896Y-7261984D02*
X5198753Y-7261984D01*
X5198753Y-7261984D02*
X5179706Y-7252460D01*
X5179706Y-7252460D02*
X5170182Y-7242936D01*
X5474944Y-7061984D02*
X5379706Y-7061984D01*
X5379706Y-7061984D02*
X5370182Y-7157222D01*
X5370182Y-7157222D02*
X5379706Y-7147698D01*
X5379706Y-7147698D02*
X5398753Y-7138174D01*
X5398753Y-7138174D02*
X5446372Y-7138174D01*
X5446372Y-7138174D02*
X5465420Y-7147698D01*
X5465420Y-7147698D02*
X5474944Y-7157222D01*
X5474944Y-7157222D02*
X5484468Y-7176269D01*
X5484468Y-7176269D02*
X5484468Y-7223888D01*
X5484468Y-7223888D02*
X5474944Y-7242936D01*
X5474944Y-7242936D02*
X5465420Y-7252460D01*
X5465420Y-7252460D02*
X5446372Y-7261984D01*
X5446372Y-7261984D02*
X5398753Y-7261984D01*
X5398753Y-7261984D02*
X5379706Y-7252460D01*
X5379706Y-7252460D02*
X5370182Y-7242936D01*
X5608277Y-7061984D02*
X5627325Y-7061984D01*
X5627325Y-7061984D02*
X5646372Y-7071508D01*
X5646372Y-7071508D02*
X5655896Y-7081031D01*
X5655896Y-7081031D02*
X5665420Y-7100079D01*
X5665420Y-7100079D02*
X5674944Y-7138174D01*
X5674944Y-7138174D02*
X5674944Y-7185793D01*
X5674944Y-7185793D02*
X5665420Y-7223888D01*
X5665420Y-7223888D02*
X5655896Y-7242936D01*
X5655896Y-7242936D02*
X5646372Y-7252460D01*
X5646372Y-7252460D02*
X5627325Y-7261984D01*
X5627325Y-7261984D02*
X5608277Y-7261984D01*
X5608277Y-7261984D02*
X5589229Y-7252460D01*
X5589229Y-7252460D02*
X5579706Y-7242936D01*
X5579706Y-7242936D02*
X5570182Y-7223888D01*
X5570182Y-7223888D02*
X5560658Y-7185793D01*
X5560658Y-7185793D02*
X5560658Y-7138174D01*
X5560658Y-7138174D02*
X5570182Y-7100079D01*
X5570182Y-7100079D02*
X5579706Y-7081031D01*
X5579706Y-7081031D02*
X5589229Y-7071508D01*
X5589229Y-7071508D02*
X5608277Y-7061984D01*
X5751134Y-7061984D02*
X5751134Y-7100079D01*
X5827325Y-7061984D02*
X5827325Y-7100079D01*
X6122563Y-7338174D02*
X6113039Y-7328650D01*
X6113039Y-7328650D02*
X6093991Y-7300079D01*
X6093991Y-7300079D02*
X6084468Y-7281031D01*
X6084468Y-7281031D02*
X6074944Y-7252460D01*
X6074944Y-7252460D02*
X6065420Y-7204841D01*
X6065420Y-7204841D02*
X6065420Y-7166746D01*
X6065420Y-7166746D02*
X6074944Y-7119127D01*
X6074944Y-7119127D02*
X6084468Y-7090555D01*
X6084468Y-7090555D02*
X6093991Y-7071508D01*
X6093991Y-7071508D02*
X6113039Y-7042936D01*
X6113039Y-7042936D02*
X6122563Y-7033412D01*
X6189229Y-7081031D02*
X6198753Y-7071508D01*
X6198753Y-7071508D02*
X6217801Y-7061984D01*
X6217801Y-7061984D02*
X6265420Y-7061984D01*
X6265420Y-7061984D02*
X6284468Y-7071508D01*
X6284468Y-7071508D02*
X6293991Y-7081031D01*
X6293991Y-7081031D02*
X6303515Y-7100079D01*
X6303515Y-7100079D02*
X6303515Y-7119127D01*
X6303515Y-7119127D02*
X6293991Y-7147698D01*
X6293991Y-7147698D02*
X6179706Y-7261984D01*
X6179706Y-7261984D02*
X6303515Y-7261984D01*
X6541610Y-7261984D02*
X6541610Y-7061984D01*
X6627325Y-7261984D02*
X6627325Y-7157222D01*
X6627325Y-7157222D02*
X6617801Y-7138174D01*
X6617801Y-7138174D02*
X6598753Y-7128650D01*
X6598753Y-7128650D02*
X6570182Y-7128650D01*
X6570182Y-7128650D02*
X6551134Y-7138174D01*
X6551134Y-7138174D02*
X6541610Y-7147698D01*
X6751134Y-7261984D02*
X6732087Y-7252460D01*
X6732087Y-7252460D02*
X6722563Y-7242936D01*
X6722563Y-7242936D02*
X6713039Y-7223888D01*
X6713039Y-7223888D02*
X6713039Y-7166746D01*
X6713039Y-7166746D02*
X6722563Y-7147698D01*
X6722563Y-7147698D02*
X6732087Y-7138174D01*
X6732087Y-7138174D02*
X6751134Y-7128650D01*
X6751134Y-7128650D02*
X6779706Y-7128650D01*
X6779706Y-7128650D02*
X6798753Y-7138174D01*
X6798753Y-7138174D02*
X6808277Y-7147698D01*
X6808277Y-7147698D02*
X6817801Y-7166746D01*
X6817801Y-7166746D02*
X6817801Y-7223888D01*
X6817801Y-7223888D02*
X6808277Y-7242936D01*
X6808277Y-7242936D02*
X6798753Y-7252460D01*
X6798753Y-7252460D02*
X6779706Y-7261984D01*
X6779706Y-7261984D02*
X6751134Y-7261984D01*
X6932087Y-7261984D02*
X6913039Y-7252460D01*
X6913039Y-7252460D02*
X6903515Y-7233412D01*
X6903515Y-7233412D02*
X6903515Y-7061984D01*
X7084468Y-7252460D02*
X7065420Y-7261984D01*
X7065420Y-7261984D02*
X7027325Y-7261984D01*
X7027325Y-7261984D02*
X7008277Y-7252460D01*
X7008277Y-7252460D02*
X6998753Y-7233412D01*
X6998753Y-7233412D02*
X6998753Y-7157222D01*
X6998753Y-7157222D02*
X7008277Y-7138174D01*
X7008277Y-7138174D02*
X7027325Y-7128650D01*
X7027325Y-7128650D02*
X7065420Y-7128650D01*
X7065420Y-7128650D02*
X7084468Y-7138174D01*
X7084468Y-7138174D02*
X7093991Y-7157222D01*
X7093991Y-7157222D02*
X7093991Y-7176269D01*
X7093991Y-7176269D02*
X6998753Y-7195317D01*
X7170182Y-7252460D02*
X7189230Y-7261984D01*
X7189230Y-7261984D02*
X7227325Y-7261984D01*
X7227325Y-7261984D02*
X7246372Y-7252460D01*
X7246372Y-7252460D02*
X7255896Y-7233412D01*
X7255896Y-7233412D02*
X7255896Y-7223888D01*
X7255896Y-7223888D02*
X7246372Y-7204841D01*
X7246372Y-7204841D02*
X7227325Y-7195317D01*
X7227325Y-7195317D02*
X7198753Y-7195317D01*
X7198753Y-7195317D02*
X7179706Y-7185793D01*
X7179706Y-7185793D02*
X7170182Y-7166746D01*
X7170182Y-7166746D02*
X7170182Y-7157222D01*
X7170182Y-7157222D02*
X7179706Y-7138174D01*
X7179706Y-7138174D02*
X7198753Y-7128650D01*
X7198753Y-7128650D02*
X7227325Y-7128650D01*
X7227325Y-7128650D02*
X7246372Y-7138174D01*
X7322563Y-7338174D02*
X7332087Y-7328650D01*
X7332087Y-7328650D02*
X7351134Y-7300079D01*
X7351134Y-7300079D02*
X7360658Y-7281031D01*
X7360658Y-7281031D02*
X7370182Y-7252460D01*
X7370182Y-7252460D02*
X7379706Y-7204841D01*
X7379706Y-7204841D02*
X7379706Y-7166746D01*
X7379706Y-7166746D02*
X7370182Y-7119127D01*
X7370182Y-7119127D02*
X7360658Y-7090555D01*
X7360658Y-7090555D02*
X7351134Y-7071508D01*
X7351134Y-7071508D02*
X7332087Y-7042936D01*
X7332087Y-7042936D02*
X7322563Y-7033412D01*
D13*
X2528462Y-7480462D02*
X2528462Y-7388538D01*
X2436538Y-7388538D01*
X2436538Y-7480462D01*
X2528462Y-7480462D01*
D11*
X2913039Y-7525984D02*
X2798753Y-7525984D01*
X2855896Y-7525984D02*
X2855896Y-7325984D01*
X2855896Y-7325984D02*
X2836848Y-7354555D01*
X2836848Y-7354555D02*
X2817801Y-7373603D01*
X2817801Y-7373603D02*
X2798753Y-7383127D01*
X2998753Y-7506936D02*
X3008277Y-7516460D01*
X3008277Y-7516460D02*
X2998753Y-7525984D01*
X2998753Y-7525984D02*
X2989229Y-7516460D01*
X2989229Y-7516460D02*
X2998753Y-7506936D01*
X2998753Y-7506936D02*
X2998753Y-7525984D01*
X3074943Y-7325984D02*
X3198753Y-7325984D01*
X3198753Y-7325984D02*
X3132086Y-7402174D01*
X3132086Y-7402174D02*
X3160658Y-7402174D01*
X3160658Y-7402174D02*
X3179705Y-7411698D01*
X3179705Y-7411698D02*
X3189229Y-7421222D01*
X3189229Y-7421222D02*
X3198753Y-7440269D01*
X3198753Y-7440269D02*
X3198753Y-7487888D01*
X3198753Y-7487888D02*
X3189229Y-7506936D01*
X3189229Y-7506936D02*
X3179705Y-7516460D01*
X3179705Y-7516460D02*
X3160658Y-7525984D01*
X3160658Y-7525984D02*
X3103515Y-7525984D01*
X3103515Y-7525984D02*
X3084467Y-7516460D01*
X3084467Y-7516460D02*
X3074943Y-7506936D01*
X3322562Y-7325984D02*
X3341610Y-7325984D01*
X3341610Y-7325984D02*
X3360658Y-7335508D01*
X3360658Y-7335508D02*
X3370182Y-7345031D01*
X3370182Y-7345031D02*
X3379705Y-7364079D01*
X3379705Y-7364079D02*
X3389229Y-7402174D01*
X3389229Y-7402174D02*
X3389229Y-7449793D01*
X3389229Y-7449793D02*
X3379705Y-7487888D01*
X3379705Y-7487888D02*
X3370182Y-7506936D01*
X3370182Y-7506936D02*
X3360658Y-7516460D01*
X3360658Y-7516460D02*
X3341610Y-7525984D01*
X3341610Y-7525984D02*
X3322562Y-7525984D01*
X3322562Y-7525984D02*
X3303515Y-7516460D01*
X3303515Y-7516460D02*
X3293991Y-7506936D01*
X3293991Y-7506936D02*
X3284467Y-7487888D01*
X3284467Y-7487888D02*
X3274943Y-7449793D01*
X3274943Y-7449793D02*
X3274943Y-7402174D01*
X3274943Y-7402174D02*
X3284467Y-7364079D01*
X3284467Y-7364079D02*
X3293991Y-7345031D01*
X3293991Y-7345031D02*
X3303515Y-7335508D01*
X3303515Y-7335508D02*
X3322562Y-7325984D01*
X3513039Y-7325984D02*
X3532086Y-7325984D01*
X3532086Y-7325984D02*
X3551134Y-7335508D01*
X3551134Y-7335508D02*
X3560658Y-7345031D01*
X3560658Y-7345031D02*
X3570182Y-7364079D01*
X3570182Y-7364079D02*
X3579705Y-7402174D01*
X3579705Y-7402174D02*
X3579705Y-7449793D01*
X3579705Y-7449793D02*
X3570182Y-7487888D01*
X3570182Y-7487888D02*
X3560658Y-7506936D01*
X3560658Y-7506936D02*
X3551134Y-7516460D01*
X3551134Y-7516460D02*
X3532086Y-7525984D01*
X3532086Y-7525984D02*
X3513039Y-7525984D01*
X3513039Y-7525984D02*
X3493991Y-7516460D01*
X3493991Y-7516460D02*
X3484467Y-7506936D01*
X3484467Y-7506936D02*
X3474943Y-7487888D01*
X3474943Y-7487888D02*
X3465420Y-7449793D01*
X3465420Y-7449793D02*
X3465420Y-7402174D01*
X3465420Y-7402174D02*
X3474943Y-7364079D01*
X3474943Y-7364079D02*
X3484467Y-7345031D01*
X3484467Y-7345031D02*
X3493991Y-7335508D01*
X3493991Y-7335508D02*
X3513039Y-7325984D01*
X3665420Y-7525984D02*
X3665420Y-7392650D01*
X3665420Y-7411698D02*
X3674943Y-7402174D01*
X3674943Y-7402174D02*
X3693991Y-7392650D01*
X3693991Y-7392650D02*
X3722563Y-7392650D01*
X3722563Y-7392650D02*
X3741610Y-7402174D01*
X3741610Y-7402174D02*
X3751134Y-7421222D01*
X3751134Y-7421222D02*
X3751134Y-7525984D01*
X3751134Y-7421222D02*
X3760658Y-7402174D01*
X3760658Y-7402174D02*
X3779705Y-7392650D01*
X3779705Y-7392650D02*
X3808277Y-7392650D01*
X3808277Y-7392650D02*
X3827324Y-7402174D01*
X3827324Y-7402174D02*
X3836848Y-7421222D01*
X3836848Y-7421222D02*
X3836848Y-7525984D01*
X3932086Y-7525984D02*
X3932086Y-7392650D01*
X3932086Y-7411698D02*
X3941610Y-7402174D01*
X3941610Y-7402174D02*
X3960658Y-7392650D01*
X3960658Y-7392650D02*
X3989229Y-7392650D01*
X3989229Y-7392650D02*
X4008277Y-7402174D01*
X4008277Y-7402174D02*
X4017801Y-7421222D01*
X4017801Y-7421222D02*
X4017801Y-7525984D01*
X4017801Y-7421222D02*
X4027324Y-7402174D01*
X4027324Y-7402174D02*
X4046372Y-7392650D01*
X4046372Y-7392650D02*
X4074943Y-7392650D01*
X4074943Y-7392650D02*
X4093991Y-7402174D01*
X4093991Y-7402174D02*
X4103515Y-7421222D01*
X4103515Y-7421222D02*
X4103515Y-7525984D01*
X4493991Y-7316460D02*
X4322563Y-7573603D01*
X4751134Y-7325984D02*
X4770182Y-7325984D01*
X4770182Y-7325984D02*
X4789229Y-7335508D01*
X4789229Y-7335508D02*
X4798753Y-7345031D01*
X4798753Y-7345031D02*
X4808277Y-7364079D01*
X4808277Y-7364079D02*
X4817801Y-7402174D01*
X4817801Y-7402174D02*
X4817801Y-7449793D01*
X4817801Y-7449793D02*
X4808277Y-7487888D01*
X4808277Y-7487888D02*
X4798753Y-7506936D01*
X4798753Y-7506936D02*
X4789229Y-7516460D01*
X4789229Y-7516460D02*
X4770182Y-7525984D01*
X4770182Y-7525984D02*
X4751134Y-7525984D01*
X4751134Y-7525984D02*
X4732087Y-7516460D01*
X4732087Y-7516460D02*
X4722563Y-7506936D01*
X4722563Y-7506936D02*
X4713039Y-7487888D01*
X4713039Y-7487888D02*
X4703515Y-7449793D01*
X4703515Y-7449793D02*
X4703515Y-7402174D01*
X4703515Y-7402174D02*
X4713039Y-7364079D01*
X4713039Y-7364079D02*
X4722563Y-7345031D01*
X4722563Y-7345031D02*
X4732087Y-7335508D01*
X4732087Y-7335508D02*
X4751134Y-7325984D01*
X4903515Y-7506936D02*
X4913039Y-7516460D01*
X4913039Y-7516460D02*
X4903515Y-7525984D01*
X4903515Y-7525984D02*
X4893991Y-7516460D01*
X4893991Y-7516460D02*
X4903515Y-7506936D01*
X4903515Y-7506936D02*
X4903515Y-7525984D01*
X5036848Y-7325984D02*
X5055896Y-7325984D01*
X5055896Y-7325984D02*
X5074944Y-7335508D01*
X5074944Y-7335508D02*
X5084468Y-7345031D01*
X5084468Y-7345031D02*
X5093991Y-7364079D01*
X5093991Y-7364079D02*
X5103515Y-7402174D01*
X5103515Y-7402174D02*
X5103515Y-7449793D01*
X5103515Y-7449793D02*
X5093991Y-7487888D01*
X5093991Y-7487888D02*
X5084468Y-7506936D01*
X5084468Y-7506936D02*
X5074944Y-7516460D01*
X5074944Y-7516460D02*
X5055896Y-7525984D01*
X5055896Y-7525984D02*
X5036848Y-7525984D01*
X5036848Y-7525984D02*
X5017801Y-7516460D01*
X5017801Y-7516460D02*
X5008277Y-7506936D01*
X5008277Y-7506936D02*
X4998753Y-7487888D01*
X4998753Y-7487888D02*
X4989229Y-7449793D01*
X4989229Y-7449793D02*
X4989229Y-7402174D01*
X4989229Y-7402174D02*
X4998753Y-7364079D01*
X4998753Y-7364079D02*
X5008277Y-7345031D01*
X5008277Y-7345031D02*
X5017801Y-7335508D01*
X5017801Y-7335508D02*
X5036848Y-7325984D01*
X5284468Y-7325984D02*
X5189229Y-7325984D01*
X5189229Y-7325984D02*
X5179706Y-7421222D01*
X5179706Y-7421222D02*
X5189229Y-7411698D01*
X5189229Y-7411698D02*
X5208277Y-7402174D01*
X5208277Y-7402174D02*
X5255896Y-7402174D01*
X5255896Y-7402174D02*
X5274944Y-7411698D01*
X5274944Y-7411698D02*
X5284468Y-7421222D01*
X5284468Y-7421222D02*
X5293991Y-7440269D01*
X5293991Y-7440269D02*
X5293991Y-7487888D01*
X5293991Y-7487888D02*
X5284468Y-7506936D01*
X5284468Y-7506936D02*
X5274944Y-7516460D01*
X5274944Y-7516460D02*
X5255896Y-7525984D01*
X5255896Y-7525984D02*
X5208277Y-7525984D01*
X5208277Y-7525984D02*
X5189229Y-7516460D01*
X5189229Y-7516460D02*
X5179706Y-7506936D01*
X5484468Y-7525984D02*
X5370182Y-7525984D01*
X5427325Y-7525984D02*
X5427325Y-7325984D01*
X5427325Y-7325984D02*
X5408277Y-7354555D01*
X5408277Y-7354555D02*
X5389229Y-7373603D01*
X5389229Y-7373603D02*
X5370182Y-7383127D01*
X5560658Y-7345031D02*
X5570182Y-7335508D01*
X5570182Y-7335508D02*
X5589229Y-7325984D01*
X5589229Y-7325984D02*
X5636848Y-7325984D01*
X5636848Y-7325984D02*
X5655896Y-7335508D01*
X5655896Y-7335508D02*
X5665420Y-7345031D01*
X5665420Y-7345031D02*
X5674944Y-7364079D01*
X5674944Y-7364079D02*
X5674944Y-7383127D01*
X5674944Y-7383127D02*
X5665420Y-7411698D01*
X5665420Y-7411698D02*
X5551134Y-7525984D01*
X5551134Y-7525984D02*
X5674944Y-7525984D01*
X5751134Y-7325984D02*
X5751134Y-7364079D01*
X5827325Y-7325984D02*
X5827325Y-7364079D01*
X6122563Y-7602174D02*
X6113039Y-7592650D01*
X6113039Y-7592650D02*
X6093991Y-7564079D01*
X6093991Y-7564079D02*
X6084468Y-7545031D01*
X6084468Y-7545031D02*
X6074944Y-7516460D01*
X6074944Y-7516460D02*
X6065420Y-7468841D01*
X6065420Y-7468841D02*
X6065420Y-7430746D01*
X6065420Y-7430746D02*
X6074944Y-7383127D01*
X6074944Y-7383127D02*
X6084468Y-7354555D01*
X6084468Y-7354555D02*
X6093991Y-7335508D01*
X6093991Y-7335508D02*
X6113039Y-7306936D01*
X6113039Y-7306936D02*
X6122563Y-7297412D01*
X6189229Y-7345031D02*
X6198753Y-7335508D01*
X6198753Y-7335508D02*
X6217801Y-7325984D01*
X6217801Y-7325984D02*
X6265420Y-7325984D01*
X6265420Y-7325984D02*
X6284468Y-7335508D01*
X6284468Y-7335508D02*
X6293991Y-7345031D01*
X6293991Y-7345031D02*
X6303515Y-7364079D01*
X6303515Y-7364079D02*
X6303515Y-7383127D01*
X6303515Y-7383127D02*
X6293991Y-7411698D01*
X6293991Y-7411698D02*
X6179706Y-7525984D01*
X6179706Y-7525984D02*
X6303515Y-7525984D01*
X6427325Y-7325984D02*
X6446372Y-7325984D01*
X6446372Y-7325984D02*
X6465420Y-7335508D01*
X6465420Y-7335508D02*
X6474944Y-7345031D01*
X6474944Y-7345031D02*
X6484468Y-7364079D01*
X6484468Y-7364079D02*
X6493991Y-7402174D01*
X6493991Y-7402174D02*
X6493991Y-7449793D01*
X6493991Y-7449793D02*
X6484468Y-7487888D01*
X6484468Y-7487888D02*
X6474944Y-7506936D01*
X6474944Y-7506936D02*
X6465420Y-7516460D01*
X6465420Y-7516460D02*
X6446372Y-7525984D01*
X6446372Y-7525984D02*
X6427325Y-7525984D01*
X6427325Y-7525984D02*
X6408277Y-7516460D01*
X6408277Y-7516460D02*
X6398753Y-7506936D01*
X6398753Y-7506936D02*
X6389229Y-7487888D01*
X6389229Y-7487888D02*
X6379706Y-7449793D01*
X6379706Y-7449793D02*
X6379706Y-7402174D01*
X6379706Y-7402174D02*
X6389229Y-7364079D01*
X6389229Y-7364079D02*
X6398753Y-7345031D01*
X6398753Y-7345031D02*
X6408277Y-7335508D01*
X6408277Y-7335508D02*
X6427325Y-7325984D01*
X6732087Y-7525984D02*
X6732087Y-7325984D01*
X6817801Y-7525984D02*
X6817801Y-7421222D01*
X6817801Y-7421222D02*
X6808277Y-7402174D01*
X6808277Y-7402174D02*
X6789230Y-7392650D01*
X6789230Y-7392650D02*
X6760658Y-7392650D01*
X6760658Y-7392650D02*
X6741610Y-7402174D01*
X6741610Y-7402174D02*
X6732087Y-7411698D01*
X6941610Y-7525984D02*
X6922563Y-7516460D01*
X6922563Y-7516460D02*
X6913039Y-7506936D01*
X6913039Y-7506936D02*
X6903515Y-7487888D01*
X6903515Y-7487888D02*
X6903515Y-7430746D01*
X6903515Y-7430746D02*
X6913039Y-7411698D01*
X6913039Y-7411698D02*
X6922563Y-7402174D01*
X6922563Y-7402174D02*
X6941610Y-7392650D01*
X6941610Y-7392650D02*
X6970182Y-7392650D01*
X6970182Y-7392650D02*
X6989230Y-7402174D01*
X6989230Y-7402174D02*
X6998753Y-7411698D01*
X6998753Y-7411698D02*
X7008277Y-7430746D01*
X7008277Y-7430746D02*
X7008277Y-7487888D01*
X7008277Y-7487888D02*
X6998753Y-7506936D01*
X6998753Y-7506936D02*
X6989230Y-7516460D01*
X6989230Y-7516460D02*
X6970182Y-7525984D01*
X6970182Y-7525984D02*
X6941610Y-7525984D01*
X7122563Y-7525984D02*
X7103515Y-7516460D01*
X7103515Y-7516460D02*
X7093991Y-7497412D01*
X7093991Y-7497412D02*
X7093991Y-7325984D01*
X7274944Y-7516460D02*
X7255896Y-7525984D01*
X7255896Y-7525984D02*
X7217801Y-7525984D01*
X7217801Y-7525984D02*
X7198753Y-7516460D01*
X7198753Y-7516460D02*
X7189230Y-7497412D01*
X7189230Y-7497412D02*
X7189230Y-7421222D01*
X7189230Y-7421222D02*
X7198753Y-7402174D01*
X7198753Y-7402174D02*
X7217801Y-7392650D01*
X7217801Y-7392650D02*
X7255896Y-7392650D01*
X7255896Y-7392650D02*
X7274944Y-7402174D01*
X7274944Y-7402174D02*
X7284468Y-7421222D01*
X7284468Y-7421222D02*
X7284468Y-7440269D01*
X7284468Y-7440269D02*
X7189230Y-7459317D01*
X7360658Y-7516460D02*
X7379706Y-7525984D01*
X7379706Y-7525984D02*
X7417801Y-7525984D01*
X7417801Y-7525984D02*
X7436849Y-7516460D01*
X7436849Y-7516460D02*
X7446372Y-7497412D01*
X7446372Y-7497412D02*
X7446372Y-7487888D01*
X7446372Y-7487888D02*
X7436849Y-7468841D01*
X7436849Y-7468841D02*
X7417801Y-7459317D01*
X7417801Y-7459317D02*
X7389230Y-7459317D01*
X7389230Y-7459317D02*
X7370182Y-7449793D01*
X7370182Y-7449793D02*
X7360658Y-7430746D01*
X7360658Y-7430746D02*
X7360658Y-7421222D01*
X7360658Y-7421222D02*
X7370182Y-7402174D01*
X7370182Y-7402174D02*
X7389230Y-7392650D01*
X7389230Y-7392650D02*
X7417801Y-7392650D01*
X7417801Y-7392650D02*
X7436849Y-7402174D01*
X7513039Y-7602174D02*
X7522563Y-7592650D01*
X7522563Y-7592650D02*
X7541611Y-7564079D01*
X7541611Y-7564079D02*
X7551134Y-7545031D01*
X7551134Y-7545031D02*
X7560658Y-7516460D01*
X7560658Y-7516460D02*
X7570182Y-7468841D01*
X7570182Y-7468841D02*
X7570182Y-7430746D01*
X7570182Y-7430746D02*
X7560658Y-7383127D01*
X7560658Y-7383127D02*
X7551134Y-7354555D01*
X7551134Y-7354555D02*
X7541611Y-7335508D01*
X7541611Y-7335508D02*
X7522563Y-7306936D01*
X7522563Y-7306936D02*
X7513039Y-7297412D01*
M02*
